<svg xmlns="http://www.w3.org/2000/svg" xmlns:xlink="http://www.w3.org/1999/xlink" width="500" zoomAndPan="magnify" viewBox="0 0 375 374.999991" height="500" preserveAspectRatio="xMidYMid meet" version="1.0"><defs><clipPath id="cf59de41bc"><path d="M 65.746094 145.023438 L 276.707031 145.023438 L 276.707031 262.417969 L 65.746094 262.417969 Z M 65.746094 145.023438 " clip-rule="nonzero"/></clipPath><clipPath id="7e993c22eb"><path d="M 140 112.425781 L 309.425781 112.425781 L 309.425781 222 L 140 222 Z M 140 112.425781 " clip-rule="nonzero"/></clipPath></defs><rect x="-37.5" width="450" fill="#ffffff" y="-37.499999" height="449.999989" fill-opacity="1"/><rect x="-37.5" width="450" fill="#ffffff" y="-37.499999" height="449.999989" fill-opacity="1"/><g clip-path="url(#cf59de41bc)"><path fill="#000000" d="M 242.300781 256.503906 L 94.539062 256.503906 C 81.929688 256.503906 71.671875 246.261719 71.671875 233.667969 C 71.671875 221.078125 81.929688 210.832031 94.539062 210.832031 C 95.707031 210.832031 96.886719 210.921875 98.039062 211.101562 C 98.953125 211.242188 99.882812 210.945312 100.546875 210.304688 C 101.210938 209.664062 101.539062 208.75 101.429688 207.832031 C 101.261719 206.371094 101.175781 205 101.175781 203.644531 C 101.175781 184.078125 117.117188 168.164062 136.707031 168.164062 C 140.976562 168.164062 145.15625 168.917969 149.132812 170.398438 C 150.328125 170.84375 151.679688 170.476562 152.480469 169.480469 C 161.828125 157.859375 175.734375 151.195312 190.628906 151.195312 C 216.621094 151.195312 238.078125 171.476562 239.480469 197.371094 C 239.566406 198.933594 240.855469 200.160156 242.425781 200.167969 C 257.910156 200.234375 270.507812 212.871094 270.507812 228.335938 C 270.507812 243.867188 257.855469 256.503906 242.300781 256.503906 Z M 245.183594 194.375 C 242.328125 166.632812 218.867188 145.277344 190.628906 145.277344 C 174.628906 145.277344 159.652344 152.136719 149.203125 164.167969 C 145.167969 162.894531 140.976562 162.246094 136.707031 162.246094 C 113.847656 162.246094 95.253906 180.816406 95.253906 203.644531 C 95.253906 204.070312 95.261719 204.5 95.273438 204.929688 C 95.027344 204.921875 94.78125 204.917969 94.539062 204.917969 C 78.664062 204.917969 65.746094 217.816406 65.746094 233.667969 C 65.746094 249.523438 78.664062 262.417969 94.539062 262.417969 L 242.300781 262.417969 C 261.121094 262.417969 276.433594 247.128906 276.433594 228.335938 C 276.433594 210.542969 262.648438 195.84375 245.183594 194.375 " fill-opacity="1" fill-rule="nonzero"/></g><g clip-path="url(#7e993c22eb)"><path fill="#000000" d="M 280.046875 158.457031 C 277.289062 132.4375 255.253906 112.425781 228.746094 112.425781 C 213.734375 112.425781 199.679688 118.84375 189.859375 130.105469 C 186.09375 128.925781 182.183594 128.332031 178.203125 128.332031 C 161.046875 128.332031 146.070312 139.308594 140.945312 155.644531 C 140.457031 157.203125 141.324219 158.863281 142.886719 159.351562 C 144.445312 159.839844 146.109375 158.972656 146.597656 157.414062 C 150.945312 143.554688 163.648438 134.246094 178.203125 134.246094 C 182.183594 134.246094 186.078125 134.945312 189.785156 136.328125 C 190.984375 136.777344 192.332031 136.40625 193.132812 135.410156 C 201.859375 124.5625 214.84375 118.339844 228.746094 118.339844 C 253.007812 118.339844 273.035156 137.273438 274.34375 161.445312 C 274.429688 163.007812 275.722656 164.234375 277.289062 164.242188 C 291.703125 164.304688 303.429688 176.0625 303.429688 190.457031 C 303.429688 202.859375 294.613281 213.660156 282.46875 216.144531 C 280.867188 216.46875 279.832031 218.03125 280.160156 219.632812 C 280.449219 221.03125 281.679688 221.996094 283.058594 221.996094 C 283.253906 221.996094 283.453125 221.976562 283.65625 221.9375 C 298.542969 218.894531 309.351562 205.652344 309.351562 190.457031 C 309.351562 173.734375 296.4375 159.914062 280.046875 158.457031 " fill-opacity="1" fill-rule="nonzero"/></g></svg>