<svg xmlns="http://www.w3.org/2000/svg" xmlns:xlink="http://www.w3.org/1999/xlink" width="500" zoomAndPan="magnify" viewBox="0 0 375 374.999991" height="500" preserveAspectRatio="xMidYMid meet" version="1.0"><defs><clipPath id="e90c00cef8"><path d="M 84.90625 103 L 265 103 L 265 238 L 84.90625 238 Z M 84.90625 103 " clip-rule="nonzero"/></clipPath><clipPath id="76690bce68"><path d="M 268 139 L 290.40625 139 L 290.40625 147 L 268 147 Z M 268 139 " clip-rule="nonzero"/></clipPath><clipPath id="1f94470b8b"><path d="M 221 77.628906 L 229 77.628906 L 229 100 L 221 100 Z M 221 77.628906 " clip-rule="nonzero"/></clipPath><clipPath id="71742d8ebf"><path d="M 136 267 L 161 267 L 161 297.375 L 136 297.375 Z M 136 267 " clip-rule="nonzero"/></clipPath><clipPath id="10d1628f96"><path d="M 176 267 L 201 267 L 201 297.375 L 176 297.375 Z M 176 267 " clip-rule="nonzero"/></clipPath></defs><rect x="-37.5" width="450" fill="#ffffff" y="-37.499999" height="449.999989" fill-opacity="1"/><rect x="-37.5" width="450" fill="#ffffff" y="-37.499999" height="449.999989" fill-opacity="1"/><g clip-path="url(#e90c00cef8)"><path fill="#000000" d="M 264.539062 143.289062 C 264.539062 121.324219 246.65625 103.453125 224.671875 103.453125 C 205.296875 103.453125 188.953125 117.128906 185.460938 136.078125 C 178.378906 129.230469 168.792969 125.167969 158.613281 125.167969 C 138.464844 125.167969 121.863281 140.597656 120.066406 160.242188 C 100.371094 162.0625 84.917969 178.613281 84.917969 198.753906 C 84.917969 220.066406 102.269531 237.417969 123.636719 237.417969 L 213.761719 237.417969 C 234.953125 237.242188 252.207031 219.917969 252.207031 198.753906 C 252.207031 190.863281 249.761719 183.414062 245.558594 177.183594 C 257.441406 169.859375 264.539062 157.195312 264.539062 143.289062 Z M 191.566406 143.289062 C 191.566406 142.804688 191.5625 142.324219 191.617188 141.773438 C 192.390625 124.101562 206.910156 110.261719 224.671875 110.261719 C 242.910156 110.261719 257.75 125.078125 257.75 143.289062 C 257.75 154.878906 251.523438 165.765625 241.507812 171.707031 C 241.421875 171.757812 241.367188 171.832031 241.285156 171.886719 C 237.132812 167.585938 232.007812 164.214844 226.167969 162.210938 C 224.246094 150.542969 214.109375 141.769531 202.027344 141.769531 C 198.480469 141.769531 195.035156 142.542969 191.839844 144.011719 C 191.746094 143.851562 191.640625 143.703125 191.542969 143.546875 C 191.546875 143.460938 191.566406 143.378906 191.566406 143.289062 Z M 213.734375 229.9375 L 123.636719 229.9375 C 123.613281 229.9375 123.613281 229.9375 123.585938 229.9375 C 106.386719 229.914062 92.40625 215.929688 92.40625 198.753906 C 92.40625 181.554688 106.410156 167.542969 123.636719 167.542969 C 127.78125 167.542969 131.800781 168.34375 135.59375 169.914062 C 137.515625 170.710938 139.714844 169.8125 140.488281 167.894531 C 141.289062 166 140.386719 163.804688 138.464844 163.007812 C 134.996094 161.5625 131.324219 160.664062 127.582031 160.265625 C 129.355469 144.734375 142.585938 132.644531 158.613281 132.644531 C 169.746094 132.644531 180.035156 138.628906 185.574219 148.125 C 183.152344 150.320312 181.179688 153.011719 179.78125 156.003906 C 178.933594 157.898438 179.757812 160.117188 181.628906 160.960938 C 183.503906 161.835938 185.722656 161.011719 186.597656 159.144531 C 187.046875 158.121094 187.621094 157.175781 188.296875 156.277344 C 189.21875 154.957031 190.367188 153.785156 191.664062 152.789062 C 191.941406 152.589844 192.191406 152.390625 192.464844 152.214844 C 195.3125 150.269531 198.605469 149.246094 202.027344 149.246094 C 211.039062 149.246094 218.476562 156.277344 218.976562 165.25 C 219.078125 166.871094 220.175781 168.242188 221.722656 168.664062 C 226.742188 170.035156 231.210938 172.605469 234.855469 176.019531 C 236.003906 177.089844 237.050781 178.238281 238.027344 179.484375 C 242.246094 184.84375 244.714844 191.574219 244.714844 198.753906 C 244.71875 215.804688 230.8125 229.8125 213.734375 229.9375 Z M 213.734375 229.9375 " fill-opacity="1" fill-rule="nonzero"/></g><g clip-path="url(#76690bce68)"><path fill="#000000" d="M 287.023438 139.894531 L 272.316406 139.894531 C 270.445312 139.894531 268.917969 141.417969 268.917969 143.289062 C 268.917969 145.160156 270.445312 146.683594 272.316406 146.683594 L 287.023438 146.683594 C 288.898438 146.683594 290.421875 145.160156 290.421875 143.289062 C 290.421875 141.417969 288.898438 139.894531 287.023438 139.894531 Z M 287.023438 139.894531 " fill-opacity="1" fill-rule="nonzero"/></g><g clip-path="url(#1f94470b8b)"><path fill="#000000" d="M 224.664062 99.097656 C 226.539062 99.097656 228.0625 97.574219 228.0625 95.703125 L 228.0625 81.019531 C 228.0625 79.148438 226.539062 77.628906 224.664062 77.628906 C 222.789062 77.628906 221.265625 79.148438 221.265625 81.019531 L 221.265625 95.703125 C 221.265625 97.574219 222.789062 99.097656 224.664062 99.097656 Z M 224.664062 99.097656 " fill-opacity="1" fill-rule="nonzero"/></g><path fill="#000000" d="M 258.359375 113.035156 C 259.265625 113.035156 260.121094 112.683594 260.761719 112.042969 L 271.164062 101.65625 C 271.804688 101.015625 272.160156 100.164062 272.160156 99.257812 C 272.160156 98.351562 271.804688 97.5 271.164062 96.859375 C 269.878906 95.574219 267.640625 95.574219 266.355469 96.859375 L 255.957031 107.242188 C 254.632812 108.566406 254.632812 110.71875 255.957031 112.042969 C 256.601562 112.683594 257.453125 113.035156 258.359375 113.035156 Z M 258.359375 113.035156 " fill-opacity="1" fill-rule="nonzero"/><path fill="#000000" d="M 260.761719 174.535156 C 259.476562 173.253906 257.242188 173.253906 255.957031 174.535156 C 255.316406 175.175781 254.960938 176.027344 254.960938 176.933594 C 254.960938 177.839844 255.316406 178.695312 255.957031 179.332031 L 266.355469 189.714844 C 266.996094 190.359375 267.851562 190.710938 268.757812 190.710938 C 269.667969 190.710938 270.523438 190.359375 271.160156 189.71875 C 271.804688 189.078125 272.160156 188.226562 272.160156 187.316406 C 272.160156 186.410156 271.804688 185.558594 271.160156 184.917969 Z M 260.761719 174.535156 " fill-opacity="1" fill-rule="nonzero"/><path fill="#000000" d="M 188.566406 112.042969 C 189.207031 112.683594 190.0625 113.035156 190.96875 113.035156 C 191.875 113.035156 192.726562 112.683594 193.371094 112.042969 C 194.011719 111.398438 194.367188 110.546875 194.367188 109.640625 C 194.367188 108.734375 194.011719 107.882812 193.371094 107.242188 L 182.96875 96.859375 C 181.6875 95.574219 179.453125 95.574219 178.164062 96.859375 C 177.523438 97.5 177.167969 98.351562 177.167969 99.257812 C 177.167969 100.164062 177.523438 101.015625 178.164062 101.65625 Z M 188.566406 112.042969 " fill-opacity="1" fill-rule="nonzero"/><path fill="#000000" d="M 128.320312 271.945312 C 121.863281 271.945312 116.613281 266.703125 116.613281 260.253906 C 116.613281 254.566406 124.757812 244.414062 126.390625 242.4375 C 127.339844 241.289062 129.296875 241.285156 130.246094 242.4375 C 131.878906 244.414062 140.027344 254.566406 140.027344 260.253906 C 140.027344 266.703125 134.773438 271.945312 128.320312 271.945312 Z M 128.320312 248.054688 C 125.085938 252.347656 121.605469 257.863281 121.605469 260.257812 C 121.605469 263.953125 124.617188 266.960938 128.320312 266.960938 C 132.023438 266.960938 135.035156 263.953125 135.035156 260.257812 C 135.035156 257.859375 131.554688 252.34375 128.320312 248.054688 Z M 128.320312 248.054688 " fill-opacity="1" fill-rule="nonzero"/><path fill="#000000" d="M 168.550781 271.945312 C 162.09375 271.945312 156.839844 266.703125 156.839844 260.253906 C 156.839844 254.566406 164.988281 244.414062 166.625 242.4375 C 167.570312 241.285156 169.527344 241.285156 170.476562 242.4375 C 172.109375 244.414062 180.257812 254.566406 180.257812 260.253906 C 180.257812 266.703125 175.003906 271.945312 168.550781 271.945312 Z M 168.550781 248.054688 C 165.3125 252.347656 161.832031 257.863281 161.832031 260.257812 C 161.832031 263.953125 164.847656 266.960938 168.550781 266.960938 C 172.253906 266.960938 175.265625 263.953125 175.265625 260.257812 C 175.265625 257.859375 171.785156 252.34375 168.550781 248.054688 Z M 168.550781 248.054688 " fill-opacity="1" fill-rule="nonzero"/><path fill="#000000" d="M 208.777344 271.945312 C 202.324219 271.945312 197.070312 266.703125 197.070312 260.253906 C 197.070312 254.566406 205.21875 244.414062 206.851562 242.4375 C 207.800781 241.285156 209.757812 241.285156 210.707031 242.4375 C 212.339844 244.414062 220.488281 254.566406 220.488281 260.253906 C 220.488281 266.703125 215.234375 271.945312 208.777344 271.945312 Z M 208.777344 248.054688 C 205.542969 252.347656 202.0625 257.863281 202.0625 260.257812 C 202.0625 263.953125 205.074219 266.960938 208.777344 266.960938 C 212.480469 266.960938 215.496094 263.953125 215.496094 260.257812 C 215.496094 257.859375 212.015625 252.34375 208.777344 248.054688 Z M 208.777344 248.054688 " fill-opacity="1" fill-rule="nonzero"/><g clip-path="url(#71742d8ebf)"><path fill="#000000" d="M 148.433594 297.375 C 141.980469 297.375 136.726562 292.132812 136.726562 285.6875 C 136.726562 280 144.875 269.84375 146.507812 267.867188 C 147.457031 266.71875 149.414062 266.71875 150.359375 267.867188 C 151.996094 269.84375 160.144531 280 160.144531 285.6875 C 160.144531 292.132812 154.890625 297.375 148.433594 297.375 Z M 148.433594 273.488281 C 145.199219 277.777344 141.71875 283.292969 141.71875 285.6875 C 141.71875 289.382812 144.730469 292.390625 148.433594 292.390625 C 152.136719 292.390625 155.148438 289.382812 155.148438 285.6875 C 155.148438 283.292969 151.667969 277.777344 148.433594 273.488281 Z M 148.433594 273.488281 " fill-opacity="1" fill-rule="nonzero"/></g><g clip-path="url(#10d1628f96)"><path fill="#000000" d="M 188.664062 297.375 C 182.210938 297.375 176.957031 292.132812 176.957031 285.6875 C 176.957031 280 185.105469 269.84375 186.738281 267.867188 C 187.6875 266.71875 189.644531 266.71875 190.589844 267.867188 C 192.226562 269.84375 200.375 280 200.375 285.6875 C 200.375 292.132812 195.121094 297.375 188.664062 297.375 Z M 188.664062 273.488281 C 185.429688 277.777344 181.949219 283.292969 181.949219 285.6875 C 181.949219 289.382812 184.960938 292.390625 188.664062 292.390625 C 192.367188 292.390625 195.378906 289.382812 195.378906 285.6875 C 195.378906 283.292969 191.898438 277.777344 188.664062 273.488281 Z M 188.664062 273.488281 " fill-opacity="1" fill-rule="nonzero"/></g></svg>