<svg xmlns="http://www.w3.org/2000/svg" xmlns:xlink="http://www.w3.org/1999/xlink" width="500" zoomAndPan="magnify" viewBox="0 0 375 374.999991" height="500" preserveAspectRatio="xMidYMid meet" version="1.0"><defs><clipPath id="7b7549cea3"><path d="M 83 94.296875 L 292.027344 94.296875 L 292.027344 281 L 83 281 Z M 83 94.296875 " clip-rule="nonzero"/></clipPath></defs><rect x="-37.5" width="450" fill="#ffffff" y="-37.499999" height="449.999989" fill-opacity="1"/><rect x="-37.5" width="450" fill="#ffffff" y="-37.499999" height="449.999989" fill-opacity="1"/><g clip-path="url(#7b7549cea3)"><path fill="#000000" d="M 135.335938 117.292969 C 134.902344 117.292969 134.484375 117.207031 134.085938 117.042969 C 133.6875 116.875 133.332031 116.640625 133.027344 116.332031 C 132.71875 116.027344 132.484375 115.671875 132.320312 115.269531 C 132.152344 114.871094 132.070312 114.453125 132.070312 114.019531 L 132.070312 97.648438 C 132.070312 97.214844 132.152344 96.796875 132.320312 96.398438 C 132.484375 95.996094 132.71875 95.640625 133.027344 95.335938 C 133.332031 95.027344 133.6875 94.792969 134.085938 94.625 C 134.484375 94.460938 134.902344 94.375 135.335938 94.375 C 135.769531 94.375 136.183594 94.460938 136.585938 94.625 C 136.984375 94.792969 137.335938 95.027344 137.644531 95.335938 C 137.949219 95.640625 138.183594 95.996094 138.351562 96.398438 C 138.515625 96.796875 138.597656 97.214844 138.597656 97.648438 L 138.597656 114.019531 C 138.597656 114.453125 138.515625 114.871094 138.351562 115.269531 C 138.183594 115.671875 137.949219 116.027344 137.644531 116.332031 C 137.335938 116.640625 136.984375 116.875 136.585938 117.042969 C 136.183594 117.207031 135.769531 117.292969 135.335938 117.292969 Z M 292.027344 234.253906 L 292.027344 247.839844 C 292.027344 266.105469 275.183594 280.96875 254.488281 280.96875 L 120.644531 280.96875 C 99.949219 280.96875 83.105469 266.105469 83.105469 247.839844 L 83.105469 234.253906 C 83.109375 233.90625 83.164062 233.570312 83.265625 233.238281 C 83.539062 230.820312 84.085938 228.46875 84.914062 226.179688 C 85.738281 223.894531 86.820312 221.734375 88.15625 219.703125 C 89.492188 217.671875 91.046875 215.824219 92.820312 214.160156 C 94.589844 212.5 96.53125 211.066406 98.644531 209.867188 C 100.5625 208.699219 102.566406 207.695312 104.648438 206.855469 C 109.789062 204.828125 115.121094 203.824219 120.644531 203.84375 C 122.390625 203.84375 124.132812 203.941406 125.867188 204.136719 C 132.070312 192.582031 146.140625 184.824219 161.449219 184.824219 C 164.84375 184.816406 168.191406 185.191406 171.5 185.949219 C 174.804688 186.707031 177.984375 187.824219 181.035156 189.308594 C 181.691406 187.871094 182.441406 186.484375 183.289062 185.152344 C 185.398438 181.886719 187.914062 178.972656 190.832031 176.410156 C 193.292969 174.253906 195.929688 172.335938 198.742188 170.664062 C 201.554688 168.988281 204.496094 167.585938 207.5625 166.449219 C 210.632812 165.3125 213.777344 164.464844 217 163.90625 C 220.222656 163.347656 223.46875 163.085938 226.738281 163.121094 C 253.734375 163.121094 275.707031 181.648438 275.707031 204.398438 C 275.691406 206.011719 275.574219 207.617188 275.347656 209.210938 C 276.476562 209.789062 277.566406 210.4375 278.621094 211.152344 C 279.671875 211.863281 280.675781 212.640625 281.632812 213.476562 C 282.585938 214.3125 283.488281 215.207031 284.335938 216.15625 C 285.183594 217.101562 285.96875 218.101562 286.695312 219.144531 C 287.417969 220.191406 288.078125 221.277344 288.667969 222.402344 C 289.261719 223.53125 289.78125 224.6875 290.230469 225.878906 C 290.679688 227.070312 291.054688 228.285156 291.355469 229.519531 C 291.65625 230.757812 291.878906 232.007812 292.027344 233.273438 C 292.078125 233.597656 292.078125 233.925781 292.027344 234.253906 Z M 285.5 235.136719 C 285.484375 234.929688 285.484375 234.722656 285.5 234.515625 C 285.386719 233.40625 285.203125 232.304688 284.945312 231.21875 C 284.691406 230.132812 284.359375 229.070312 283.960938 228.027344 C 283.558594 226.984375 283.089844 225.976562 282.554688 224.996094 C 282.019531 224.019531 281.417969 223.078125 280.757812 222.179688 C 280.09375 221.285156 279.375 220.433594 278.601562 219.632812 C 277.824219 218.832031 276.996094 218.089844 276.121094 217.398438 C 275.246094 216.710938 274.328125 216.082031 273.367188 215.519531 C 272.40625 214.953125 271.410156 214.453125 270.382812 214.023438 C 270.058594 213.863281 269.769531 213.65625 269.511719 213.398438 C 269.257812 213.144531 269.046875 212.851562 268.886719 212.527344 C 268.730469 212.199219 268.625 211.855469 268.582031 211.496094 C 268.535156 211.136719 268.546875 210.777344 268.621094 210.421875 C 269.042969 208.460938 269.257812 206.472656 269.273438 204.464844 C 269.175781 185.25 250.144531 169.667969 226.738281 169.667969 C 211.035156 169.667969 196.804688 176.835938 189.492188 187.835938 C 187.988281 190.09375 186.789062 192.503906 185.902344 195.070312 C 185.820312 195.300781 185.71875 195.523438 185.589844 195.734375 C 185.460938 195.941406 185.3125 196.132812 185.140625 196.308594 C 184.96875 196.484375 184.777344 196.636719 184.574219 196.769531 C 184.367188 196.902344 184.148438 197.011719 183.917969 197.09375 C 183.6875 197.179688 183.449219 197.234375 183.207031 197.265625 C 182.964844 197.292969 182.722656 197.296875 182.476562 197.273438 C 182.234375 197.246094 181.996094 197.195312 181.761719 197.117188 C 181.53125 197.039062 181.3125 196.933594 181.101562 196.804688 C 180.683594 196.53125 180.25 196.292969 179.796875 196.085938 C 176.988281 194.527344 174.03125 193.351562 170.925781 192.550781 C 167.816406 191.753906 164.660156 191.359375 161.449219 191.371094 C 147.738281 191.371094 135.335938 198.476562 130.765625 209.046875 C 130.621094 209.386719 130.421875 209.691406 130.175781 209.960938 C 129.929688 210.234375 129.644531 210.457031 129.320312 210.632812 C 128.996094 210.808594 128.65625 210.925781 128.292969 210.984375 C 127.929688 211.042969 127.566406 211.042969 127.207031 210.980469 C 125.046875 210.589844 122.871094 210.390625 120.675781 210.390625 C 117.0625 210.367188 113.523438 210.890625 110.066406 211.960938 C 107.699219 212.605469 105.449219 213.535156 103.3125 214.742188 C 101.4375 215.664062 99.710938 216.804688 98.132812 218.167969 C 96.550781 219.53125 95.167969 221.074219 93.984375 222.792969 C 92.796875 224.511719 91.847656 226.355469 91.132812 228.316406 C 90.417969 230.28125 89.960938 232.304688 89.761719 234.386719 C 89.742188 234.640625 89.699219 234.890625 89.632812 235.136719 L 89.632812 247.90625 C 89.632812 262.503906 103.539062 274.421875 120.644531 274.421875 L 254.488281 274.421875 C 271.59375 274.421875 285.5 262.503906 285.5 247.839844 Z M 96.617188 207.28125 L 96.945312 207.082031 C 98.71875 206.003906 100.554688 205.054688 102.460938 204.234375 C 100.917969 202.25 99.546875 200.144531 98.351562 197.929688 C 97.15625 195.714844 96.152344 193.414062 95.335938 191.03125 C 94.523438 188.644531 93.910156 186.210938 93.503906 183.722656 C 93.09375 181.238281 92.890625 178.734375 92.898438 176.214844 C 92.898438 174.714844 92.96875 173.214844 93.117188 171.722656 C 93.265625 170.230469 93.484375 168.746094 93.777344 167.273438 C 94.066406 165.800781 94.429688 164.347656 94.863281 162.910156 C 95.300781 161.476562 95.804688 160.0625 96.375 158.675781 C 96.949219 157.289062 97.589844 155.933594 98.292969 154.609375 C 99 153.289062 99.769531 152 100.597656 150.753906 C 101.429688 149.503906 102.320312 148.300781 103.269531 147.140625 C 104.222656 145.980469 105.226562 144.871094 106.28125 143.808594 C 107.339844 142.746094 108.449219 141.742188 109.605469 140.789062 C 110.761719 139.835938 111.964844 138.941406 113.207031 138.109375 C 114.453125 137.273438 115.734375 136.503906 117.054688 135.796875 C 118.375 135.089844 119.726562 134.449219 121.109375 133.875 C 122.492188 133.300781 123.902344 132.792969 125.332031 132.359375 C 126.765625 131.921875 128.214844 131.558594 129.683594 131.265625 C 131.152344 130.972656 132.628906 130.753906 134.121094 130.605469 C 135.609375 130.460938 137.101562 130.386719 138.597656 130.386719 C 140.097656 130.386719 141.589844 130.460938 143.078125 130.605469 C 144.570312 130.753906 146.046875 130.972656 147.515625 131.265625 C 148.984375 131.558594 150.433594 131.921875 151.867188 132.359375 C 153.296875 132.792969 154.707031 133.300781 156.089844 133.875 C 157.472656 134.449219 158.824219 135.089844 160.144531 135.796875 C 161.464844 136.503906 162.746094 137.273438 163.988281 138.109375 C 165.234375 138.941406 166.433594 139.835938 167.59375 140.789062 C 168.75 141.742188 169.855469 142.746094 170.914062 143.808594 C 171.972656 144.871094 172.976562 145.980469 173.925781 147.140625 C 174.878906 148.300781 175.769531 149.503906 176.597656 150.753906 C 177.429688 152 178.199219 153.289062 178.90625 154.609375 C 179.609375 155.933594 180.25 157.289062 180.824219 158.675781 C 181.394531 160.0625 181.898438 161.476562 182.332031 162.910156 C 182.769531 164.347656 183.132812 165.800781 183.421875 167.273438 C 183.714844 168.746094 183.933594 170.230469 184.082031 171.722656 C 184.226562 173.214844 184.300781 174.714844 184.300781 176.214844 C 184.300781 177 184.300781 177.753906 184.300781 178.507812 C 185.671875 176.902344 187.140625 175.398438 188.707031 173.988281 L 190.730469 172.253906 C 190.65625 171.246094 190.550781 170.242188 190.417969 169.242188 C 190.285156 168.238281 190.121094 167.242188 189.929688 166.25 C 189.742188 165.257812 189.519531 164.273438 189.273438 163.292969 C 189.023438 162.316406 188.75 161.34375 188.445312 160.382812 C 188.140625 159.417969 187.808594 158.464844 187.449219 157.519531 C 187.09375 156.578125 186.707031 155.644531 186.292969 154.722656 C 185.878906 153.800781 185.441406 152.894531 184.976562 151.996094 C 184.511719 151.101562 184.019531 150.21875 183.503906 149.351562 C 182.988281 148.484375 182.449219 147.632812 181.882812 146.796875 C 181.316406 145.960938 180.726562 145.140625 180.117188 144.339844 C 179.503906 143.535156 178.867188 142.753906 178.210938 141.988281 C 177.550781 141.222656 176.871094 140.476562 176.171875 139.75 C 175.472656 139.027344 174.75 138.320312 174.007812 137.636719 C 173.265625 136.953125 172.507812 136.292969 171.726562 135.652344 C 170.949219 135.011719 170.148438 134.394531 169.335938 133.800781 C 168.519531 133.207031 167.6875 132.640625 166.839844 132.09375 C 165.992188 131.546875 165.128906 131.027344 164.25 130.53125 C 163.375 130.039062 162.480469 129.570312 161.578125 129.125 C 160.671875 128.679688 159.753906 128.265625 158.824219 127.875 C 157.894531 127.484375 156.957031 127.121094 156.007812 126.785156 C 155.054688 126.449219 154.097656 126.140625 153.128906 125.863281 C 152.160156 125.582031 151.1875 125.332031 150.203125 125.105469 C 149.222656 124.882812 148.234375 124.6875 147.238281 124.523438 C 146.246094 124.355469 145.246094 124.21875 144.246094 124.109375 C 143.246094 124.003906 142.242188 123.921875 141.234375 123.875 C 140.230469 123.824219 139.222656 123.800781 138.214844 123.8125 C 137.207031 123.820312 136.199219 123.855469 135.195312 123.921875 C 134.191406 123.992188 133.1875 124.085938 132.1875 124.210938 C 131.1875 124.335938 130.195312 124.488281 129.203125 124.671875 C 128.210938 124.855469 127.226562 125.066406 126.25 125.304688 C 125.269531 125.546875 124.300781 125.8125 123.335938 126.109375 C 122.375 126.40625 121.417969 126.730469 120.476562 127.082031 C 119.53125 127.433594 118.597656 127.8125 117.675781 128.21875 C 116.75 128.625 115.839844 129.054688 114.945312 129.515625 C 114.046875 129.972656 113.164062 130.457031 112.292969 130.964844 C 111.421875 131.476562 110.570312 132.011719 109.730469 132.570312 C 108.890625 133.128906 108.070312 133.710938 107.265625 134.320312 C 106.457031 134.925781 105.671875 135.554688 104.902344 136.207031 C 104.132812 136.859375 103.382812 137.535156 102.65625 138.230469 C 101.925781 138.929688 101.214844 139.644531 100.527344 140.382812 C 99.839844 141.121094 99.171875 141.875 98.527344 142.652344 C 97.882812 143.429688 97.257812 144.222656 96.660156 145.035156 C 96.0625 145.847656 95.484375 146.675781 94.933594 147.519531 C 94.382812 148.367188 93.855469 149.226562 93.355469 150.101562 C 92.851562 150.980469 92.378906 151.867188 91.925781 152.773438 C 91.476562 153.675781 91.050781 154.59375 90.65625 155.519531 C 90.257812 156.449219 89.886719 157.386719 89.542969 158.335938 C 89.199219 159.285156 88.886719 160.246094 88.597656 161.214844 C 88.308594 162.183594 88.050781 163.15625 87.816406 164.140625 C 87.585938 165.125 87.382812 166.113281 87.207031 167.109375 C 87.035156 168.101562 86.886719 169.101562 86.769531 170.105469 C 86.652344 171.109375 86.566406 172.113281 86.507812 173.121094 C 86.449219 174.132812 86.417969 175.140625 86.417969 176.152344 C 86.417969 177.160156 86.445312 178.171875 86.503906 179.179688 C 86.5625 180.1875 86.648438 181.191406 86.761719 182.195312 C 86.878906 183.199219 87.023438 184.199219 87.195312 185.195312 C 87.371094 186.191406 87.570312 187.179688 87.800781 188.164062 C 88.03125 189.144531 88.289062 190.121094 88.578125 191.089844 C 88.863281 192.058594 89.179688 193.019531 89.519531 193.96875 C 89.863281 194.917969 90.230469 195.859375 90.628906 196.785156 C 91.023438 197.714844 91.445312 198.632812 91.894531 199.535156 C 92.34375 200.441406 92.820312 201.332031 93.320312 202.207031 C 93.820312 203.085938 94.347656 203.945312 94.894531 204.792969 C 95.445312 205.636719 96.019531 206.46875 96.617188 207.28125 Z M 177.773438 130.386719 C 178.675781 130.390625 179.449219 130.074219 180.089844 129.4375 L 193.148438 116.34375 C 193.457031 116.035156 193.691406 115.679688 193.859375 115.277344 C 194.023438 114.871094 194.109375 114.453125 194.109375 114.019531 C 194.109375 113.582031 194.023438 113.164062 193.859375 112.761719 C 193.691406 112.355469 193.457031 112 193.148438 111.695312 C 192.839844 111.386719 192.484375 111.148438 192.085938 110.980469 C 191.683594 110.8125 191.265625 110.730469 190.832031 110.730469 C 190.394531 110.730469 189.976562 110.8125 189.574219 110.980469 C 189.175781 111.148438 188.820312 111.386719 188.511719 111.695312 L 175.453125 124.789062 C 175.144531 125.09375 174.90625 125.449219 174.738281 125.851562 C 174.574219 126.257812 174.488281 126.675781 174.488281 127.113281 C 174.488281 127.546875 174.574219 127.96875 174.738281 128.371094 C 174.90625 128.773438 175.144531 129.128906 175.453125 129.4375 C 176.097656 130.074219 176.867188 130.390625 177.773438 130.386719 Z M 197.359375 159.847656 L 216.945312 159.847656 C 217.378906 159.847656 217.796875 159.765625 218.195312 159.597656 C 218.59375 159.433594 218.949219 159.195312 219.253906 158.886719 C 219.558594 158.582031 219.796875 158.226562 219.960938 157.828125 C 220.128906 157.425781 220.210938 157.007812 220.210938 156.574219 C 220.210938 156.140625 220.128906 155.722656 219.960938 155.320312 C 219.796875 154.917969 219.558594 154.566406 219.253906 154.257812 C 218.949219 153.953125 218.59375 153.714844 218.195312 153.550781 C 217.796875 153.382812 217.378906 153.300781 216.945312 153.300781 L 197.359375 153.300781 C 196.925781 153.300781 196.511719 153.382812 196.109375 153.550781 C 195.710938 153.714844 195.355469 153.953125 195.050781 154.257812 C 194.746094 154.566406 194.507812 154.917969 194.34375 155.320312 C 194.175781 155.722656 194.09375 156.140625 194.09375 156.574219 C 194.09375 157.007812 194.175781 157.425781 194.34375 157.828125 C 194.507812 158.226562 194.746094 158.582031 195.050781 158.886719 C 195.355469 159.195312 195.710938 159.433594 196.109375 159.597656 C 196.511719 159.765625 196.925781 159.847656 197.359375 159.847656 Z M 93.550781 129.074219 C 93.859375 129.488281 94.242188 129.808594 94.703125 130.039062 C 95.160156 130.269531 95.648438 130.386719 96.160156 130.386719 C 96.886719 130.386719 97.539062 130.167969 98.121094 129.730469 C 98.464844 129.46875 98.75 129.152344 98.96875 128.78125 C 99.191406 128.40625 99.332031 128.003906 99.394531 127.574219 C 99.453125 127.144531 99.429688 126.71875 99.324219 126.300781 C 99.214844 125.878906 99.03125 125.496094 98.773438 125.148438 L 88.980469 112.054688 C 88.71875 111.707031 88.402344 111.421875 88.03125 111.203125 C 87.660156 110.980469 87.257812 110.839844 86.832031 110.777344 C 86.402344 110.71875 85.976562 110.742188 85.558594 110.847656 C 85.140625 110.957031 84.757812 111.140625 84.410156 111.402344 C 84.066406 111.660156 83.78125 111.976562 83.5625 112.351562 C 83.339844 112.726562 83.199219 113.125 83.140625 113.554688 C 83.078125 113.984375 83.101562 114.410156 83.207031 114.832031 C 83.3125 115.25 83.496094 115.632812 83.757812 115.980469 Z M 93.550781 129.074219 " fill-opacity="1" fill-rule="nonzero"/></g></svg>