<svg xmlns="http://www.w3.org/2000/svg" xmlns:xlink="http://www.w3.org/1999/xlink" width="500" zoomAndPan="magnify" viewBox="0 0 375 374.999991" height="500" preserveAspectRatio="xMidYMid meet" version="1.0"><defs><clipPath id="97c5de20bc"><path d="M 146 251 L 175 251 L 175 293.058594 L 146 293.058594 Z M 146 251 " clip-rule="nonzero"/></clipPath><clipPath id="1662600fd7"><path d="M 202 251 L 231 251 L 231 293.058594 L 202 293.058594 Z M 202 251 " clip-rule="nonzero"/></clipPath></defs><rect x="-37.5" width="450" fill="#ffffff" y="-37.499999" height="449.999989" fill-opacity="1"/><rect x="-37.5" width="450" fill="#ffffff" y="-37.499999" height="449.999989" fill-opacity="1"/><g clip-path="url(#97c5de20bc)"><path fill="#000000" d="M 162.589844 251.875 C 160.90625 250.777344 158.65625 251.25 157.558594 252.933594 C 155.734375 256.1875 146.636719 272.714844 146.636719 279.089844 C 146.636719 286.808594 152.890625 293.0625 160.605469 293.0625 C 168.316406 293.0625 174.570312 286.808594 174.570312 279.089844 C 174.570312 272.714844 165.492188 256.1875 163.648438 252.933594 C 163.371094 252.511719 163.011719 252.148438 162.589844 251.875 Z M 160.605469 286.078125 C 156.746094 286.078125 153.621094 282.953125 153.621094 279.089844 C 155.148438 273.109375 157.496094 267.359375 160.605469 262.019531 C 163.714844 267.359375 166.0625 273.109375 167.585938 279.089844 C 167.585938 282.953125 164.460938 286.078125 160.605469 286.078125 Z M 160.605469 286.078125 " fill-opacity="1" fill-rule="nonzero"/></g><g clip-path="url(#1662600fd7)"><path fill="#000000" d="M 218.449219 251.875 C 216.765625 250.777344 214.515625 251.25 213.417969 252.933594 C 211.578125 256.1875 202.5 272.714844 202.5 279.089844 C 202.5 286.808594 208.75 293.0625 216.460938 293.0625 C 224.175781 293.0625 230.429688 286.808594 230.429688 279.089844 C 230.429688 272.714844 221.351562 256.1875 219.507812 252.933594 C 219.234375 252.511719 218.871094 252.148438 218.449219 251.875 Z M 216.460938 286.078125 C 212.609375 286.078125 209.480469 282.953125 209.480469 279.089844 C 211.003906 273.109375 213.355469 267.359375 216.460938 262.019531 C 219.570312 267.359375 221.921875 273.109375 223.445312 279.089844 C 223.445312 282.953125 220.320312 286.078125 216.460938 286.078125 Z M 216.460938 286.078125 " fill-opacity="1" fill-rule="nonzero"/></g><path fill="#000000" d="M 191.578125 224.996094 C 191.300781 224.570312 190.941406 224.210938 190.519531 223.933594 C 188.839844 222.839844 186.585938 223.316406 185.488281 224.996094 C 183.664062 228.246094 174.570312 244.773438 174.570312 251.152344 C 174.570312 258.867188 180.820312 265.125 188.535156 265.125 C 196.246094 265.125 202.5 258.867188 202.5 251.152344 C 202.5 244.773438 193.421875 228.246094 191.578125 224.996094 Z M 188.535156 258.136719 C 184.675781 258.136719 181.550781 255.011719 181.550781 251.152344 C 183.074219 245.167969 185.425781 239.417969 188.535156 234.082031 C 191.640625 239.417969 193.992188 245.167969 195.515625 251.152344 C 195.515625 255.011719 192.390625 258.136719 188.535156 258.136719 Z M 188.535156 258.136719 " fill-opacity="1" fill-rule="nonzero"/><path fill="#000000" d="M 135.71875 224.996094 C 135.441406 224.570312 135.082031 224.210938 134.660156 223.933594 C 132.976562 222.839844 130.726562 223.316406 129.628906 224.996094 C 127.804688 228.246094 118.707031 244.773438 118.707031 251.152344 C 118.707031 258.867188 124.960938 265.125 132.675781 265.125 C 140.386719 265.125 146.636719 258.867188 146.636719 251.152344 C 146.636719 244.773438 137.5625 228.246094 135.71875 224.996094 Z M 132.675781 258.136719 C 128.816406 258.136719 125.691406 255.011719 125.691406 251.152344 C 127.21875 245.167969 129.566406 239.417969 132.675781 234.082031 C 135.785156 239.417969 138.132812 245.167969 139.65625 251.152344 C 139.65625 255.011719 136.53125 258.136719 132.675781 258.136719 Z M 132.675781 258.136719 " fill-opacity="1" fill-rule="nonzero"/><path fill="#000000" d="M 246.378906 223.933594 C 244.695312 222.839844 242.445312 223.316406 241.347656 224.996094 C 239.503906 228.246094 230.429688 244.773438 230.429688 251.152344 C 230.429688 258.867188 236.679688 265.125 244.394531 265.125 C 252.105469 265.125 258.359375 258.867188 258.359375 251.152344 C 258.359375 244.773438 249.28125 228.246094 247.4375 224.996094 C 247.160156 224.570312 246.800781 224.210938 246.378906 223.933594 Z M 244.394531 258.136719 C 240.539062 258.136719 237.410156 255.011719 237.410156 251.152344 C 238.933594 245.167969 241.285156 239.417969 244.394531 234.082031 C 247.503906 239.417969 249.851562 245.167969 251.375 251.152344 C 251.375 255.011719 248.25 258.136719 244.394531 258.136719 Z M 244.394531 258.136719 " fill-opacity="1" fill-rule="nonzero"/><path fill="#000000" d="M 293.210938 167.136719 C 291.289062 143.535156 271.554688 125.375 247.882812 125.425781 C 244.339844 125.417969 240.804688 125.824219 237.355469 126.644531 C 236.121094 101.621094 214.84375 82.332031 189.828125 83.566406 C 179.15625 84.09375 169.015625 88.367188 161.191406 95.644531 C 140.941406 89.484375 119.539062 100.917969 113.382812 121.171875 C 111.367188 127.800781 111.1875 134.851562 112.863281 141.578125 C 109.632812 145.417969 107.273438 149.917969 105.953125 154.761719 C 89.371094 159.878906 80.074219 177.476562 85.191406 194.0625 C 89.257812 207.242188 101.433594 216.230469 115.21875 216.226562 L 247.882812 216.226562 C 249.179688 216.226562 250.4375 216.1875 251.664062 216.078125 C 276.644531 214.039062 295.246094 192.128906 293.210938 167.136719 Z M 150.128906 100.976562 C 152.035156 100.972656 153.9375 101.144531 155.8125 101.488281 C 155.398438 102.035156 155.027344 102.605469 154.640625 103.171875 C 154.390625 103.519531 154.128906 103.871094 153.890625 104.246094 C 153.160156 105.375 152.472656 106.523438 151.847656 107.707031 C 151.757812 107.882812 151.683594 108.0625 151.597656 108.242188 C 151.066406 109.265625 150.582031 110.3125 150.136719 111.382812 C 149.957031 111.8125 149.808594 112.25 149.640625 112.6875 C 149.324219 113.519531 149.023438 114.359375 148.753906 115.210938 C 148.601562 115.703125 148.460938 116.195312 148.324219 116.695312 C 148.097656 117.523438 147.890625 118.363281 147.703125 119.214844 C 147.59375 119.710938 147.492188 120.207031 147.398438 120.710938 C 147.234375 121.621094 147.105469 122.546875 147 123.472656 C 146.945312 123.910156 146.875 124.347656 146.839844 124.792969 C 146.714844 126.144531 146.636719 127.519531 146.636719 128.914062 L 146.636719 129.617188 C 144.339844 129.144531 142 128.910156 139.65625 128.914062 C 138.558594 128.914062 137.472656 128.980469 136.382812 129.085938 C 136.035156 129.117188 135.71875 129.167969 135.386719 129.207031 C 134.617188 129.304688 133.855469 129.417969 133.101562 129.558594 C 132.753906 129.625 132.40625 129.695312 132.058594 129.773438 C 131.253906 129.953125 130.457031 130.164062 129.671875 130.40625 C 129.417969 130.480469 129.15625 130.546875 128.902344 130.625 C 127.890625 130.957031 126.894531 131.328125 125.917969 131.75 C 125.648438 131.863281 125.390625 132 125.125 132.121094 C 124.429688 132.449219 123.707031 132.796875 123.03125 133.167969 C 122.683594 133.355469 122.332031 133.546875 122.011719 133.75 C 121.390625 134.097656 120.785156 134.5 120.191406 134.898438 C 119.875 135.117188 119.5625 135.316406 119.253906 135.539062 C 119.144531 135.617188 119.027344 135.6875 118.90625 135.769531 C 118.777344 134.652344 118.714844 133.53125 118.707031 132.410156 C 118.726562 115.058594 132.785156 100.996094 150.128906 100.976562 Z M 251.054688 209.117188 C 250.007812 209.214844 248.960938 209.242188 247.882812 209.242188 L 115.21875 209.242188 C 101.722656 209.253906 90.769531 198.316406 90.761719 184.816406 C 90.75 173.453125 98.570312 163.582031 109.632812 160.992188 C 110.960938 160.683594 111.988281 159.628906 112.265625 158.292969 C 114.929688 145.277344 126.375 135.921875 139.65625 135.898438 C 142.925781 135.878906 146.167969 136.460938 149.222656 137.621094 C 151.019531 138.320312 153.042969 137.421875 153.734375 135.621094 C 153.949219 135.074219 154.015625 134.476562 153.9375 133.890625 C 153.71875 132.242188 153.613281 130.578125 153.621094 128.914062 C 153.621094 107.699219 170.816406 90.5 192.027344 90.5 C 213.234375 90.5 230.429688 107.699219 230.429688 128.914062 C 230.429688 129.667969 230.394531 130.421875 230.363281 131.175781 C 230.277344 133.101562 231.773438 134.730469 233.699219 134.816406 C 234.152344 134.835938 234.605469 134.765625 235.03125 134.613281 C 239.15625 133.140625 243.503906 132.390625 247.882812 132.410156 C 269.09375 132.371094 286.316406 149.539062 286.351562 170.757812 C 286.390625 190.796875 271.019531 207.496094 251.054688 209.117188 Z M 251.054688 209.117188 " fill-opacity="1" fill-rule="nonzero"/></svg>