<svg xmlns="http://www.w3.org/2000/svg" xmlns:xlink="http://www.w3.org/1999/xlink" width="500" zoomAndPan="magnify" viewBox="0 0 375 374.999991" height="500" preserveAspectRatio="xMidYMid meet" version="1.0"><defs><clipPath id="0ee23cf538"><path d="M 184 88.355469 L 191 88.355469 L 191 112 L 184 112 Z M 184 88.355469 " clip-rule="nonzero"/></clipPath><clipPath id="38d34a9990"><path d="M 184 263 L 191 263 L 191 286.355469 L 184 286.355469 Z M 184 263 " clip-rule="nonzero"/></clipPath><clipPath id="3d9a65088e"><path d="M 88.355469 184 L 112 184 L 112 191 L 88.355469 191 Z M 88.355469 184 " clip-rule="nonzero"/></clipPath><clipPath id="30b3eab0c8"><path d="M 263 184 L 286.355469 184 L 286.355469 191 L 263 191 Z M 263 184 " clip-rule="nonzero"/></clipPath></defs><rect x="-37.5" width="450" fill="#ffffff" y="-37.499999" height="449.999989" fill-opacity="1"/><rect x="-37.5" width="450" fill="#ffffff" y="-37.499999" height="449.999989" fill-opacity="1"/><path fill="#000000" d="M 244.199219 172.40625 C 245.453125 177.183594 246.121094 182.191406 246.121094 187.355469 C 246.121094 219.789062 219.789062 246.121094 187.355469 246.121094 C 176.230469 246.121094 165.828125 243.023438 156.957031 237.644531 C 155.480469 236.75 153.554688 237.21875 152.660156 238.695312 C 151.765625 240.171875 152.238281 242.09375 153.714844 242.988281 C 163.53125 248.941406 175.046875 252.371094 187.355469 252.371094 C 223.238281 252.371094 252.371094 223.238281 252.371094 187.355469 C 252.371094 181.644531 251.632812 176.101562 250.246094 170.820312 C 249.808594 169.152344 248.097656 168.152344 246.429688 168.589844 C 244.757812 169.03125 243.761719 170.742188 244.199219 172.40625 Z M 128.675781 184.175781 C 129.714844 164.722656 140.238281 147.765625 155.699219 137.851562 C 164.839844 131.992188 175.703125 128.589844 187.355469 128.589844 C 199.007812 128.589844 209.875 131.992188 219.011719 137.851562 C 219.617188 138.238281 220.210938 138.636719 220.800781 139.042969 C 222.214844 140.027344 224.164062 139.671875 225.148438 138.257812 C 226.132812 136.839844 225.78125 134.890625 224.363281 133.90625 C 223.710938 133.453125 223.054688 133.015625 222.386719 132.585938 C 212.273438 126.101562 200.25 122.339844 187.355469 122.339844 C 174.460938 122.339844 162.4375 126.101562 152.324219 132.585938 C 135.21875 143.554688 123.582031 162.316406 122.433594 183.84375 C 122.339844 185.566406 123.667969 187.042969 125.386719 187.132812 C 127.113281 187.222656 128.585938 185.902344 128.675781 184.175781 Z M 128.675781 184.175781 " fill-opacity="1" fill-rule="evenodd"/><g clip-path="url(#0ee23cf538)"><path fill="#000000" d="M 184.230469 91.480469 L 184.230469 108.582031 C 184.230469 110.308594 185.628906 111.710938 187.355469 111.710938 C 189.082031 111.710938 190.480469 110.308594 190.480469 108.582031 L 190.480469 91.480469 C 190.480469 89.757812 189.082031 88.355469 187.355469 88.355469 C 185.628906 88.355469 184.230469 89.757812 184.230469 91.480469 Z M 184.230469 91.480469 " fill-opacity="1" fill-rule="evenodd"/></g><g clip-path="url(#38d34a9990)"><path fill="#000000" d="M 184.230469 266.128906 L 184.230469 283.230469 C 184.230469 284.957031 185.628906 286.355469 187.355469 286.355469 C 189.082031 286.355469 190.480469 284.957031 190.480469 283.230469 L 190.480469 266.128906 C 190.480469 264.402344 189.082031 263.003906 187.355469 263.003906 C 185.628906 263.003906 184.230469 264.402344 184.230469 266.128906 Z M 184.230469 266.128906 " fill-opacity="1" fill-rule="evenodd"/></g><path fill="#000000" d="M 117.351562 121.773438 L 129.445312 133.863281 C 130.664062 135.085938 132.644531 135.085938 133.863281 133.863281 C 135.085938 132.644531 135.085938 130.664062 133.863281 129.445312 L 121.773438 117.351562 C 120.550781 116.132812 118.574219 116.132812 117.351562 117.351562 C 116.132812 118.574219 116.132812 120.554688 117.351562 121.773438 Z M 117.351562 121.773438 " fill-opacity="1" fill-rule="evenodd"/><path fill="#000000" d="M 240.847656 245.269531 L 252.9375 257.359375 C 254.160156 258.578125 256.140625 258.578125 257.359375 257.359375 C 258.578125 256.140625 258.578125 254.160156 257.359375 252.9375 L 245.269531 240.847656 C 244.046875 239.625 242.066406 239.625 240.847656 240.847656 C 239.625 242.066406 239.625 244.046875 240.847656 245.269531 Z M 240.847656 245.269531 " fill-opacity="1" fill-rule="evenodd"/><path fill="#000000" d="M 252.9375 117.351562 L 240.847656 129.445312 C 239.625 130.664062 239.625 132.644531 240.847656 133.863281 C 242.066406 135.085938 244.046875 135.085938 245.269531 133.863281 L 257.359375 121.773438 C 258.578125 120.554688 258.578125 118.574219 257.359375 117.351562 C 256.140625 116.132812 254.160156 116.132812 252.9375 117.351562 Z M 252.9375 117.351562 " fill-opacity="1" fill-rule="evenodd"/><path fill="#000000" d="M 129.445312 240.847656 L 117.351562 252.9375 C 116.132812 254.160156 116.132812 256.140625 117.351562 257.359375 C 118.574219 258.578125 120.550781 258.578125 121.773438 257.359375 L 133.863281 245.269531 C 135.085938 244.046875 135.085938 242.066406 133.863281 240.847656 C 132.644531 239.625 130.664062 239.625 129.445312 240.847656 Z M 129.445312 240.847656 " fill-opacity="1" fill-rule="evenodd"/><g clip-path="url(#3d9a65088e)"><path fill="#000000" d="M 91.480469 190.480469 L 108.582031 190.480469 C 110.308594 190.480469 111.710938 189.082031 111.710938 187.355469 C 111.710938 185.628906 110.308594 184.230469 108.582031 184.230469 L 91.480469 184.230469 C 89.757812 184.230469 88.355469 185.628906 88.355469 187.355469 C 88.355469 189.082031 89.757812 190.480469 91.480469 190.480469 Z M 91.480469 190.480469 " fill-opacity="1" fill-rule="evenodd"/></g><g clip-path="url(#30b3eab0c8)"><path fill="#000000" d="M 266.128906 190.480469 L 283.230469 190.480469 C 284.957031 190.480469 286.355469 189.082031 286.355469 187.355469 C 286.355469 185.628906 284.957031 184.230469 283.230469 184.230469 L 266.128906 184.230469 C 264.402344 184.230469 263.003906 185.628906 263.003906 187.355469 C 263.003906 189.082031 264.402344 190.480469 266.128906 190.480469 Z M 266.128906 190.480469 " fill-opacity="1" fill-rule="evenodd"/></g><path fill="#000000" d="M 114.566406 204.550781 C 117.410156 200.820312 121.898438 198.410156 126.945312 198.410156 C 132.648438 198.410156 137.640625 201.484375 140.347656 206.066406 C 140.785156 206.804688 141.503906 207.328125 142.335938 207.519531 C 143.167969 207.714844 144.046875 207.554688 144.757812 207.085938 C 146.011719 206.261719 147.511719 205.78125 149.125 205.78125 C 153.433594 205.78125 156.949219 209.21875 157.074219 213.5 C 157.105469 214.519531 157.628906 215.464844 158.484375 216.023438 C 159.335938 216.585938 160.410156 216.691406 161.359375 216.3125 C 162.269531 215.949219 163.265625 215.75 164.304688 215.75 C 168.695312 215.75 172.261719 219.316406 172.261719 223.703125 L 172.261719 223.707031 C 172.257812 225.105469 171.125 226.242188 169.726562 226.242188 L 118.488281 226.242188 C 117.710938 226.242188 116.960938 225.953125 116.382812 225.429688 C 113.320312 222.554688 111.390625 218.484375 111.390625 213.964844 C 111.390625 212.238281 109.988281 210.839844 108.265625 210.839844 C 106.539062 210.839844 105.136719 212.238281 105.136719 213.964844 C 105.136719 220.289062 107.832031 225.988281 112.113281 229.996094 C 112.121094 230.003906 112.128906 230.007812 112.132812 230.015625 C 113.867188 231.609375 116.132812 232.492188 118.488281 232.492188 C 126.9375 232.492188 158.390625 232.492188 169.726562 232.492188 C 174.578125 232.492188 178.511719 228.5625 178.511719 223.707031 C 178.511719 223.707031 178.511719 223.703125 178.511719 223.703125 C 178.511719 215.863281 172.144531 209.5 164.304688 209.5 C 163.765625 209.5 163.234375 209.527344 162.710938 209.585938 C 160.9375 203.765625 155.523438 199.53125 149.125 199.53125 C 147.34375 199.53125 145.636719 199.859375 144.066406 200.457031 C 140.070312 195.402344 133.886719 192.15625 126.945312 192.15625 C 119.871094 192.15625 113.578125 195.53125 109.59375 200.761719 C 108.546875 202.132812 108.8125 204.097656 110.183594 205.140625 C 111.554688 206.1875 113.519531 205.925781 114.566406 204.550781 Z M 228.480469 174.738281 C 235.84375 174.738281 259.628906 174.738281 268.34375 174.738281 C 272.535156 174.738281 275.933594 171.34375 275.933594 167.152344 L 275.933594 167.148438 C 275.933594 160.601562 270.617188 155.285156 264.070312 155.285156 C 263.804688 155.285156 263.542969 155.292969 263.28125 155.3125 C 261.644531 150.71875 257.253906 147.425781 252.101562 147.425781 C 250.78125 147.425781 249.515625 147.640625 248.328125 148.039062 C 245.054688 144.113281 240.125 141.613281 234.617188 141.613281 C 224.757812 141.613281 216.753906 149.613281 216.753906 159.472656 C 216.753906 164.234375 218.625 168.566406 221.648438 171.785156 C 221.648438 171.789062 221.648438 171.789062 221.652344 171.792969 C 223.425781 173.675781 225.894531 174.742188 228.480469 174.738281 Z M 228.480469 168.488281 C 227.617188 168.488281 226.796875 168.132812 226.207031 167.507812 C 224.234375 165.402344 223.007812 162.578125 223.007812 159.472656 C 223.007812 153.066406 228.207031 147.867188 234.617188 147.867188 C 238.871094 147.867188 242.589844 150.160156 244.613281 153.578125 C 245.050781 154.316406 245.765625 154.839844 246.597656 155.035156 C 247.433594 155.226562 248.308594 155.070312 249.023438 154.597656 C 249.90625 154.015625 250.964844 153.679688 252.101562 153.679688 C 255.144531 153.679688 257.621094 156.101562 257.710938 159.125 C 257.738281 160.144531 258.265625 161.085938 259.121094 161.648438 C 259.972656 162.207031 261.046875 162.3125 261.992188 161.9375 C 262.636719 161.679688 263.335938 161.539062 264.070312 161.539062 C 267.167969 161.539062 269.683594 164.054688 269.683594 167.148438 C 269.683594 167.890625 269.082031 168.488281 268.34375 168.488281 C 259.628906 168.488281 235.84375 168.488281 228.480469 168.488281 Z M 228.480469 168.488281 " fill-opacity="1" fill-rule="evenodd"/></svg>