<svg xmlns="http://www.w3.org/2000/svg" xmlns:xlink="http://www.w3.org/1999/xlink" width="500" zoomAndPan="magnify" viewBox="0 0 375 374.999991" height="500" preserveAspectRatio="xMidYMid meet" version="1.0"><defs><clipPath id="77c9e0f9cf"><path d="M 79.765625 98.082031 L 295 98.082031 L 295 222 L 79.765625 222 Z M 79.765625 98.082031 " clip-rule="nonzero"/></clipPath><clipPath id="64e7aead59"><path d="M 149 253 L 171 253 L 171 276.582031 L 149 276.582031 Z M 149 253 " clip-rule="nonzero"/></clipPath></defs><rect x="-37.5" width="450" fill="#ffffff" y="-37.499999" height="449.999989" fill-opacity="1"/><rect x="-37.5" width="450" fill="#ffffff" y="-37.499999" height="449.999989" fill-opacity="1"/><g clip-path="url(#77c9e0f9cf)"><path fill="#000000" d="M 193.925781 221.90625 C 181.464844 221.90625 169.214844 218.761719 158.394531 212.859375 C 153.046875 214.066406 147.441406 214.453125 141.878906 213.980469 C 135.28125 218.546875 127.34375 221.003906 119.367188 221.003906 C 97.546875 221.003906 79.824219 203.296875 79.824219 181.492188 C 79.824219 163.484375 92.246094 147.628906 109.578125 143.191406 C 112.597656 134.789062 118.203125 127.292969 125.40625 121.90625 C 133.339844 116.003906 142.738281 112.902344 152.613281 112.902344 C 156.753906 112.902344 160.894531 113.464844 164.90625 114.582031 C 174.5625 104.113281 188.191406 98.082031 202.550781 98.082031 C 222.558594 98.082031 240.539062 109.628906 248.90625 127.636719 C 249.769531 127.59375 250.671875 127.550781 251.535156 127.550781 C 275.46875 127.550781 294.960938 147.027344 294.960938 170.9375 C 294.960938 194.851562 275.46875 214.324219 251.535156 214.324219 C 245.371094 214.324219 239.203125 212.988281 233.597656 210.488281 C 221.78125 217.988281 208.113281 221.90625 193.925781 221.90625 Z M 158.78125 207.085938 C 159.253906 207.085938 159.730469 207.214844 160.160156 207.472656 C 170.382812 213.246094 182.066406 216.304688 193.882812 216.304688 C 207.507812 216.304688 220.617188 212.386719 231.828125 204.933594 C 232.648438 204.371094 233.726562 204.285156 234.632812 204.761719 C 239.808594 207.34375 245.671875 208.722656 251.492188 208.722656 C 272.320312 208.722656 289.265625 191.792969 289.265625 170.980469 C 289.265625 150.171875 272.320312 133.238281 251.492188 133.238281 C 250.113281 133.238281 248.777344 133.324219 247.394531 133.453125 C 246.144531 133.582031 244.980469 132.894531 244.507812 131.730469 C 237.390625 114.710938 220.875 103.769531 202.507812 103.769531 C 189.183594 103.769531 176.589844 109.585938 167.878906 119.753906 C 167.148438 120.617188 165.941406 120.960938 164.863281 120.617188 C 160.851562 119.324219 156.710938 118.675781 152.527344 118.675781 C 135.019531 118.675781 119.671875 129.878906 114.324219 146.550781 C 114.019531 147.5 113.203125 148.234375 112.210938 148.449219 C 96.644531 151.765625 85.34375 165.683594 85.34375 181.625 C 85.34375 200.320312 100.566406 215.53125 119.28125 215.53125 C 126.441406 215.53125 133.554688 213.203125 139.332031 208.9375 C 139.894531 208.507812 140.582031 208.335938 141.273438 208.421875 C 146.878906 209.023438 152.613281 208.636719 158.046875 207.300781 C 158.351562 207.128906 158.566406 207.085938 158.78125 207.085938 Z M 158.78125 207.085938 " fill-opacity="1" fill-rule="nonzero"/></g><path fill="#000000" d="M 138.945312 230.914062 C 138.167969 229.578125 136.445312 229.101562 135.109375 229.878906 L 131.742188 231.816406 L 131.742188 227.9375 C 131.742188 226.386719 130.492188 225.140625 128.941406 225.140625 C 127.390625 225.140625 126.136719 226.386719 126.136719 227.9375 L 126.136719 231.816406 L 122.773438 229.878906 C 121.4375 229.101562 119.714844 229.578125 118.9375 230.914062 C 118.160156 232.246094 118.636719 233.972656 119.972656 234.746094 L 123.335938 236.6875 L 119.972656 238.625 C 118.636719 239.398438 118.160156 241.125 118.9375 242.457031 C 119.453125 243.363281 120.402344 243.878906 121.394531 243.878906 C 121.871094 243.878906 122.34375 243.75 122.816406 243.492188 L 126.179688 241.554688 L 126.179688 245.433594 C 126.179688 246.984375 127.433594 248.230469 128.984375 248.230469 C 130.535156 248.230469 131.789062 246.984375 131.789062 245.433594 L 131.789062 241.554688 L 135.152344 243.492188 C 135.582031 243.75 136.097656 243.878906 136.574219 243.878906 C 137.566406 243.878906 138.515625 243.363281 139.03125 242.457031 C 139.808594 241.125 139.332031 239.398438 137.996094 238.625 L 134.632812 236.6875 L 137.996094 234.746094 C 139.246094 233.972656 139.722656 232.246094 138.945312 230.914062 Z M 138.945312 230.914062 " fill-opacity="1" fill-rule="nonzero"/><path fill="#000000" d="M 201.125 243.40625 C 200.351562 242.070312 198.625 241.597656 197.289062 242.371094 L 193.925781 244.3125 L 193.925781 240.433594 C 193.925781 238.882812 192.675781 237.632812 191.121094 237.632812 C 189.570312 237.632812 188.320312 238.882812 188.320312 240.433594 L 188.320312 244.3125 L 184.957031 242.371094 C 183.621094 241.597656 181.894531 242.070312 181.117188 243.40625 C 180.34375 244.742188 180.816406 246.464844 182.152344 247.242188 L 185.515625 249.179688 L 182.152344 251.117188 C 180.816406 251.894531 180.34375 253.617188 181.117188 254.953125 C 181.636719 255.859375 182.585938 256.375 183.578125 256.375 C 184.050781 256.375 184.523438 256.246094 185 255.988281 L 188.363281 254.046875 L 188.363281 257.925781 C 188.363281 259.476562 189.613281 260.726562 191.164062 260.726562 C 192.71875 260.726562 193.96875 259.476562 193.96875 257.925781 L 193.96875 254.046875 L 197.332031 255.988281 C 197.761719 256.246094 198.28125 256.375 198.753906 256.375 C 199.746094 256.375 200.695312 255.859375 201.214844 254.953125 C 201.988281 253.617188 201.515625 251.894531 200.179688 251.117188 L 196.816406 249.179688 L 200.179688 247.242188 C 201.429688 246.464844 201.902344 244.742188 201.125 243.40625 Z M 201.125 243.40625 " fill-opacity="1" fill-rule="nonzero"/><g clip-path="url(#64e7aead59)"><path fill="#000000" d="M 170.035156 259.261719 C 169.261719 257.925781 167.535156 257.453125 166.199219 258.226562 L 162.835938 260.167969 L 162.835938 256.289062 C 162.835938 254.738281 161.585938 253.488281 160.03125 253.488281 C 158.480469 253.488281 157.230469 254.738281 157.230469 256.289062 L 157.230469 260.167969 L 153.867188 258.226562 C 152.527344 257.453125 150.804688 257.925781 150.027344 259.261719 C 149.25 260.597656 149.726562 262.320312 151.0625 263.097656 L 154.425781 265.035156 L 151.0625 266.972656 C 149.726562 267.75 149.25 269.472656 150.027344 270.808594 C 150.546875 271.714844 151.492188 272.230469 152.484375 272.230469 C 152.960938 272.230469 153.433594 272.101562 153.910156 271.84375 L 157.273438 269.902344 L 157.273438 273.78125 C 157.273438 275.332031 158.523438 276.582031 160.074219 276.582031 C 161.628906 276.582031 162.878906 275.332031 162.878906 273.78125 L 162.878906 269.902344 L 166.242188 271.84375 C 166.671875 272.101562 167.191406 272.230469 167.664062 272.230469 C 168.65625 272.230469 169.605469 271.714844 170.121094 270.808594 C 170.898438 269.472656 170.425781 267.75 169.085938 266.972656 L 165.722656 265.035156 L 169.085938 263.097656 C 170.339844 262.320312 170.8125 260.597656 170.035156 259.261719 Z M 170.035156 259.261719 " fill-opacity="1" fill-rule="nonzero"/></g><path fill="#000000" d="M 232.21875 226.519531 C 231.441406 225.183594 229.714844 224.707031 228.378906 225.484375 L 225.015625 227.421875 L 225.015625 223.542969 C 225.015625 221.992188 223.765625 220.746094 222.214844 220.746094 C 220.660156 220.746094 219.410156 221.992188 219.410156 223.542969 L 219.410156 227.421875 L 216.046875 225.484375 C 214.710938 224.707031 212.984375 225.183594 212.210938 226.519531 C 211.433594 227.851562 211.90625 229.578125 213.242188 230.351562 L 216.609375 232.289062 L 213.242188 234.230469 C 211.90625 235.003906 211.433594 236.730469 212.210938 238.0625 C 212.726562 238.96875 213.675781 239.484375 214.667969 239.484375 C 215.140625 239.484375 215.617188 239.355469 216.089844 239.097656 L 219.453125 237.160156 L 219.453125 241.039062 C 219.453125 242.589844 220.703125 243.835938 222.257812 243.835938 C 223.808594 243.835938 225.058594 242.589844 225.058594 241.039062 L 225.058594 237.160156 L 228.421875 239.097656 C 228.855469 239.355469 229.371094 239.484375 229.847656 239.484375 C 230.835938 239.484375 231.785156 238.96875 232.304688 238.0625 C 233.078125 236.730469 232.605469 235.003906 231.269531 234.230469 L 227.90625 232.289062 L 231.269531 230.351562 C 232.519531 229.578125 232.992188 227.851562 232.21875 226.519531 Z M 232.21875 226.519531 " fill-opacity="1" fill-rule="nonzero"/><path fill="#000000" d="M 262.273438 253.832031 L 258.910156 251.894531 L 262.273438 249.957031 C 263.609375 249.179688 264.085938 247.457031 263.308594 246.121094 C 262.53125 244.785156 260.808594 244.3125 259.46875 245.085938 L 256.105469 247.027344 L 256.105469 243.148438 C 256.105469 241.597656 254.855469 240.347656 253.304688 240.347656 C 251.75 240.347656 250.5 241.597656 250.5 243.148438 L 250.5 247.027344 L 247.136719 245.085938 C 245.800781 244.3125 244.074219 244.785156 243.300781 246.121094 C 242.523438 247.457031 242.996094 249.179688 244.335938 249.957031 L 247.699219 251.894531 L 244.335938 253.832031 C 242.996094 254.609375 242.523438 256.332031 243.300781 257.667969 C 243.816406 258.574219 244.765625 259.089844 245.757812 259.089844 C 246.230469 259.089844 246.707031 258.960938 247.179688 258.703125 L 250.542969 256.761719 L 250.542969 260.640625 C 250.542969 262.191406 251.792969 263.441406 253.347656 263.441406 C 254.898438 263.441406 256.148438 262.191406 256.148438 260.640625 L 256.148438 256.761719 L 259.511719 258.703125 C 259.945312 258.960938 260.460938 259.089844 260.9375 259.089844 C 261.929688 259.089844 262.878906 258.574219 263.394531 257.667969 C 264.085938 256.332031 263.609375 254.609375 262.273438 253.832031 Z M 262.273438 253.832031 " fill-opacity="1" fill-rule="nonzero"/></svg>