<svg xmlns="http://www.w3.org/2000/svg" xmlns:xlink="http://www.w3.org/1999/xlink" width="500" zoomAndPan="magnify" viewBox="0 0 375 374.999991" height="500" preserveAspectRatio="xMidYMid meet" version="1.0"><defs><clipPath id="4c4b6ab1df"><path d="M 184 79.757812 L 192 79.757812 L 192 121 L 184 121 Z M 184 79.757812 " clip-rule="nonzero"/></clipPath><clipPath id="06a7f71fce"><path d="M 245 219 L 281.128906 219 L 281.128906 243 L 245 243 Z M 245 219 " clip-rule="nonzero"/></clipPath><clipPath id="7a60cab85b"><path d="M 245 131 L 281.128906 131 L 281.128906 156 L 245 156 Z M 245 131 " clip-rule="nonzero"/></clipPath></defs><rect x="-37.5" width="450" fill="#ffffff" y="-37.499999" height="449.999989" fill-opacity="1"/><rect x="-37.5" width="450" fill="#ffffff" y="-37.499999" height="449.999989" fill-opacity="1"/><path fill="#000000" d="M 187.550781 242.84375 C 189.367188 242.84375 191.179688 242.753906 192.988281 242.578125 C 194.796875 242.398438 196.589844 242.132812 198.371094 241.777344 C 200.152344 241.421875 201.910156 240.984375 203.648438 240.457031 C 205.386719 239.929688 207.09375 239.316406 208.773438 238.621094 C 210.449219 237.925781 212.089844 237.152344 213.691406 236.296875 C 215.292969 235.4375 216.851562 234.507812 218.359375 233.496094 C 219.871094 232.488281 221.328125 231.40625 222.730469 230.253906 C 224.136719 229.101562 225.480469 227.882812 226.761719 226.597656 C 228.046875 225.316406 229.265625 223.972656 230.417969 222.566406 C 231.570312 221.164062 232.652344 219.707031 233.660156 218.195312 C 234.667969 216.683594 235.601562 215.128906 236.457031 213.527344 C 237.3125 211.925781 238.089844 210.285156 238.785156 208.605469 C 239.480469 206.929688 240.089844 205.21875 240.617188 203.480469 C 241.144531 201.742188 241.585938 199.984375 241.941406 198.203125 C 242.292969 196.421875 242.558594 194.625 242.738281 192.816406 C 242.917969 191.011719 243.003906 189.199219 243.003906 187.382812 C 243.003906 185.566406 242.917969 183.753906 242.738281 181.945312 C 242.558594 180.136719 242.292969 178.34375 241.941406 176.5625 C 241.585938 174.78125 241.144531 173.019531 240.617188 171.28125 C 240.089844 169.542969 239.480469 167.835938 238.785156 166.15625 C 238.089844 164.480469 237.3125 162.839844 236.457031 161.238281 C 235.601562 159.636719 234.667969 158.078125 233.660156 156.570312 C 232.652344 155.058594 231.570312 153.601562 230.417969 152.199219 C 229.265625 150.792969 228.046875 149.449219 226.761719 148.164062 C 225.480469 146.878906 224.136719 145.660156 222.730469 144.507812 C 221.328125 143.355469 219.871094 142.277344 218.359375 141.265625 C 216.851562 140.257812 215.292969 139.324219 213.691406 138.46875 C 212.089844 137.613281 210.449219 136.835938 208.773438 136.140625 C 207.09375 135.445312 205.386719 134.835938 203.648438 134.308594 C 201.910156 133.78125 200.152344 133.339844 198.371094 132.984375 C 196.589844 132.632812 194.796875 132.367188 192.988281 132.1875 C 191.179688 132.007812 189.367188 131.921875 187.550781 131.921875 C 185.734375 131.921875 183.925781 132.007812 182.117188 132.1875 C 180.308594 132.367188 178.515625 132.632812 176.734375 132.984375 C 174.953125 133.339844 173.191406 133.78125 171.457031 134.308594 C 169.71875 134.835938 168.007812 135.445312 166.332031 136.140625 C 164.652344 136.835938 163.011719 137.613281 161.410156 138.46875 C 159.808594 139.324219 158.253906 140.257812 156.746094 141.265625 C 155.234375 142.277344 153.777344 143.355469 152.375 144.507812 C 150.96875 145.660156 149.625 146.878906 148.339844 148.164062 C 147.058594 149.449219 145.839844 150.792969 144.6875 152.199219 C 143.535156 153.601562 142.453125 155.058594 141.445312 156.570312 C 140.4375 158.078125 139.503906 159.636719 138.648438 161.238281 C 137.792969 162.839844 137.015625 164.480469 136.320312 166.15625 C 135.625 167.835938 135.015625 169.542969 134.488281 171.28125 C 133.960938 173.019531 133.519531 174.78125 133.164062 176.5625 C 132.8125 178.34375 132.542969 180.136719 132.367188 181.945312 C 132.1875 183.753906 132.097656 185.566406 132.097656 187.382812 C 132.101562 189.199219 132.191406 191.007812 132.371094 192.816406 C 132.550781 194.625 132.820312 196.417969 133.175781 198.199219 C 133.53125 199.976562 133.972656 201.738281 134.5 203.476562 C 135.03125 205.210938 135.640625 206.917969 136.335938 208.597656 C 137.03125 210.273438 137.808594 211.914062 138.664062 213.515625 C 139.523438 215.113281 140.457031 216.671875 141.464844 218.179688 C 142.472656 219.691406 143.554688 221.144531 144.707031 222.550781 C 145.859375 223.953125 147.074219 225.296875 148.359375 226.582031 C 149.644531 227.863281 150.988281 229.082031 152.390625 230.234375 C 153.792969 231.386719 155.25 232.46875 156.757812 233.476562 C 158.269531 234.488281 159.824219 235.417969 161.425781 236.277344 C 163.023438 237.132812 164.664062 237.910156 166.339844 238.605469 C 168.019531 239.300781 169.726562 239.914062 171.460938 240.441406 C 173.199219 240.96875 174.957031 241.410156 176.738281 241.769531 C 178.519531 242.125 180.3125 242.390625 182.117188 242.570312 C 183.925781 242.75 185.738281 242.839844 187.550781 242.84375 Z M 187.550781 138.851562 C 189.140625 138.851562 190.726562 138.929688 192.308594 139.085938 C 193.890625 139.242188 195.460938 139.476562 197.019531 139.785156 C 198.578125 140.09375 200.117188 140.480469 201.636719 140.941406 C 203.15625 141.402344 204.652344 141.9375 206.121094 142.546875 C 207.589844 143.15625 209.023438 143.832031 210.425781 144.582031 C 211.828125 145.332031 213.1875 146.148438 214.507812 147.03125 C 215.832031 147.914062 217.105469 148.859375 218.332031 149.867188 C 219.5625 150.875 220.738281 151.941406 221.863281 153.066406 C 222.984375 154.191406 224.050781 155.367188 225.058594 156.59375 C 226.066406 157.824219 227.011719 159.097656 227.894531 160.421875 C 228.777344 161.742188 229.59375 163.105469 230.34375 164.503906 C 231.09375 165.90625 231.773438 167.34375 232.378906 168.8125 C 232.988281 170.277344 233.523438 171.773438 233.984375 173.292969 C 234.445312 174.816406 234.832031 176.355469 235.140625 177.914062 C 235.453125 179.472656 235.683594 181.042969 235.839844 182.625 C 235.996094 184.207031 236.074219 185.792969 236.074219 187.382812 C 236.074219 188.972656 235.996094 190.558594 235.839844 192.140625 C 235.683594 193.71875 235.453125 195.289062 235.140625 196.847656 C 234.832031 198.410156 234.445312 199.949219 233.984375 201.46875 C 233.523438 202.988281 232.988281 204.484375 232.378906 205.953125 C 231.773438 207.421875 231.09375 208.855469 230.34375 210.257812 C 229.59375 211.660156 228.777344 213.023438 227.894531 214.34375 C 227.011719 215.664062 226.066406 216.941406 225.058594 218.167969 C 224.050781 219.398438 222.984375 220.574219 221.863281 221.695312 C 220.738281 222.820312 219.5625 223.886719 218.332031 224.894531 C 217.105469 225.902344 215.832031 226.847656 214.507812 227.734375 C 213.1875 228.617188 211.828125 229.429688 210.425781 230.179688 C 209.023438 230.929688 207.589844 231.609375 206.121094 232.21875 C 204.652344 232.824219 203.15625 233.359375 201.636719 233.820312 C 200.117188 234.28125 198.578125 234.667969 197.019531 234.980469 C 195.460938 235.289062 193.890625 235.523438 192.308594 235.675781 C 190.726562 235.832031 189.140625 235.910156 187.550781 235.910156 C 185.964844 235.910156 184.378906 235.832031 182.796875 235.675781 C 181.214844 235.523438 179.644531 235.289062 178.085938 234.980469 C 176.527344 234.667969 174.988281 234.28125 173.46875 233.820312 C 171.945312 233.359375 170.453125 232.824219 168.984375 232.21875 C 167.515625 231.609375 166.082031 230.929688 164.679688 230.179688 C 163.277344 229.429688 161.917969 228.617188 160.59375 227.734375 C 159.273438 226.847656 158 225.902344 156.769531 224.894531 C 155.542969 223.886719 154.367188 222.820312 153.242188 221.695312 C 152.117188 220.574219 151.054688 219.398438 150.042969 218.167969 C 149.035156 216.941406 148.089844 215.664062 147.207031 214.34375 C 146.324219 213.023438 145.507812 211.660156 144.761719 210.257812 C 144.011719 208.855469 143.332031 207.421875 142.722656 205.953125 C 142.117188 204.484375 141.582031 202.988281 141.121094 201.46875 C 140.660156 199.949219 140.273438 198.410156 139.964844 196.847656 C 139.652344 195.289062 139.421875 193.71875 139.265625 192.140625 C 139.109375 190.558594 139.03125 188.972656 139.03125 187.382812 C 139.03125 185.792969 139.113281 184.207031 139.269531 182.628906 C 139.425781 181.046875 139.660156 179.476562 139.972656 177.917969 C 140.285156 176.359375 140.671875 174.820312 141.132812 173.300781 C 141.59375 171.78125 142.128906 170.285156 142.738281 168.820312 C 143.347656 167.351562 144.027344 165.917969 144.777344 164.515625 C 145.527344 163.117188 146.34375 161.753906 147.226562 160.433594 C 148.109375 159.113281 149.054688 157.839844 150.0625 156.609375 C 151.070312 155.382812 152.136719 154.207031 153.257812 153.082031 C 154.382812 151.960938 155.558594 150.894531 156.785156 149.886719 C 158.011719 148.878906 159.289062 147.929688 160.609375 147.046875 C 161.929688 146.164062 163.289062 145.347656 164.691406 144.597656 C 166.089844 143.851562 167.523438 143.171875 168.992188 142.5625 C 170.460938 141.953125 171.953125 141.417969 173.472656 140.953125 C 174.992188 140.492188 176.53125 140.105469 178.089844 139.792969 C 179.648438 139.484375 181.21875 139.25 182.796875 139.089844 C 184.378906 138.933594 185.964844 138.855469 187.550781 138.851562 Z M 187.550781 138.851562 " fill-opacity="1" fill-rule="nonzero"/><g clip-path="url(#4c4b6ab1df)"><path fill="#000000" d="M 187.550781 120.285156 C 188.011719 120.285156 188.453125 120.195312 188.878906 120.019531 C 189.304688 119.84375 189.679688 119.59375 190.003906 119.269531 C 190.328125 118.945312 190.578125 118.570312 190.753906 118.144531 C 190.929688 117.71875 191.019531 117.277344 191.019531 116.816406 L 191.019531 83.390625 C 191.019531 82.929688 190.929688 82.488281 190.753906 82.066406 C 190.578125 81.640625 190.328125 81.265625 190.003906 80.941406 C 189.679688 80.613281 189.304688 80.363281 188.878906 80.1875 C 188.453125 80.011719 188.011719 79.925781 187.550781 79.925781 C 187.09375 79.925781 186.652344 80.011719 186.226562 80.1875 C 185.800781 80.363281 185.425781 80.613281 185.101562 80.941406 C 184.777344 81.265625 184.527344 81.640625 184.351562 82.066406 C 184.175781 82.488281 184.085938 82.929688 184.085938 83.390625 L 184.085938 116.816406 C 184.085938 117.277344 184.175781 117.71875 184.351562 118.144531 C 184.527344 118.570312 184.777344 118.945312 185.101562 119.269531 C 185.425781 119.59375 185.800781 119.84375 186.226562 120.019531 C 186.652344 120.195312 187.09375 120.285156 187.550781 120.285156 Z M 187.550781 120.285156 " fill-opacity="1" fill-rule="nonzero"/></g><path fill="#000000" d="M 149.273438 128.003906 C 149.503906 128.402344 149.800781 128.742188 150.164062 129.019531 C 150.527344 129.300781 150.933594 129.5 151.378906 129.621094 C 151.820312 129.738281 152.269531 129.769531 152.726562 129.707031 C 153.183594 129.648438 153.609375 129.503906 154.007812 129.273438 C 154.40625 129.042969 154.746094 128.746094 155.027344 128.382812 C 155.304688 128.015625 155.503906 127.613281 155.625 127.167969 C 155.742188 126.722656 155.773438 126.273438 155.710938 125.816406 C 155.652344 125.363281 155.507812 124.933594 155.277344 124.535156 L 145.648438 107.855469 C 145.417969 107.457031 145.121094 107.117188 144.757812 106.835938 C 144.390625 106.558594 143.988281 106.355469 143.542969 106.238281 C 143.097656 106.117188 142.648438 106.089844 142.191406 106.148438 C 141.738281 106.207031 141.308594 106.355469 140.910156 106.582031 C 140.511719 106.8125 140.175781 107.109375 139.894531 107.476562 C 139.613281 107.839844 139.414062 108.246094 139.296875 108.691406 C 139.175781 109.132812 139.148438 109.585938 139.207031 110.039062 C 139.269531 110.496094 139.414062 110.921875 139.644531 111.320312 Z M 149.273438 128.003906 " fill-opacity="1" fill-rule="nonzero"/><path fill="#000000" d="M 95.773438 138.390625 L 124.71875 155.101562 C 125.117188 155.332031 125.542969 155.476562 126 155.535156 C 126.453125 155.597656 126.902344 155.566406 127.347656 155.449219 C 127.792969 155.328125 128.195312 155.128906 128.5625 154.851562 C 128.925781 154.570312 129.222656 154.230469 129.453125 153.832031 C 129.683594 153.433594 129.828125 153.007812 129.886719 152.550781 C 129.949219 152.09375 129.917969 151.644531 129.800781 151.203125 C 129.679688 150.757812 129.480469 150.351562 129.199219 149.988281 C 128.921875 149.625 128.582031 149.324219 128.183594 149.097656 L 99.238281 132.382812 C 98.84375 132.152344 98.414062 132.007812 97.960938 131.949219 C 97.503906 131.886719 97.054688 131.917969 96.609375 132.035156 C 96.164062 132.15625 95.761719 132.355469 95.394531 132.636719 C 95.03125 132.914062 94.734375 133.253906 94.503906 133.652344 C 94.273438 134.050781 94.128906 134.476562 94.070312 134.933594 C 94.007812 135.390625 94.039062 135.839844 94.15625 136.285156 C 94.277344 136.726562 94.476562 137.132812 94.757812 137.496094 C 95.035156 137.863281 95.375 138.160156 95.773438 138.390625 Z M 95.773438 138.390625 " fill-opacity="1" fill-rule="nonzero"/><path fill="#000000" d="M 97.738281 183.914062 C 97.28125 183.914062 96.835938 184.003906 96.414062 184.179688 C 95.988281 184.355469 95.613281 184.605469 95.289062 184.929688 C 94.964844 185.257812 94.714844 185.628906 94.535156 186.054688 C 94.359375 186.480469 94.273438 186.921875 94.273438 187.382812 C 94.273438 187.839844 94.359375 188.285156 94.535156 188.707031 C 94.714844 189.132812 94.964844 189.507812 95.289062 189.832031 C 95.613281 190.15625 95.988281 190.410156 96.414062 190.585938 C 96.835938 190.761719 97.28125 190.847656 97.738281 190.847656 L 117 190.847656 C 117.457031 190.847656 117.902344 190.761719 118.324219 190.585938 C 118.75 190.410156 119.125 190.15625 119.449219 189.832031 C 119.773438 189.507812 120.023438 189.132812 120.203125 188.707031 C 120.378906 188.285156 120.464844 187.839844 120.464844 187.382812 C 120.464844 186.921875 120.378906 186.480469 120.203125 186.054688 C 120.023438 185.628906 119.773438 185.257812 119.449219 184.929688 C 119.125 184.605469 118.75 184.355469 118.324219 184.179688 C 117.902344 184.003906 117.457031 183.914062 117 183.914062 Z M 97.738281 183.914062 " fill-opacity="1" fill-rule="nonzero"/><path fill="#000000" d="M 99.238281 242.378906 L 128.183594 225.667969 C 128.582031 225.4375 128.921875 225.140625 129.203125 224.777344 C 129.480469 224.410156 129.683594 224.007812 129.800781 223.5625 C 129.921875 223.117188 129.949219 222.667969 129.890625 222.210938 C 129.832031 221.753906 129.6875 221.328125 129.457031 220.929688 C 129.226562 220.53125 128.929688 220.191406 128.5625 219.910156 C 128.199219 219.632812 127.792969 219.433594 127.347656 219.3125 C 126.90625 219.195312 126.453125 219.164062 126 219.226562 C 125.542969 219.285156 125.117188 219.433594 124.71875 219.664062 L 95.773438 236.375 C 95.375 236.605469 95.039062 236.902344 94.757812 237.265625 C 94.476562 237.632812 94.277344 238.035156 94.160156 238.480469 C 94.039062 238.925781 94.011719 239.375 94.070312 239.828125 C 94.128906 240.285156 94.273438 240.710938 94.503906 241.109375 C 94.734375 241.507812 95.03125 241.847656 95.398438 242.128906 C 95.761719 242.40625 96.164062 242.605469 96.609375 242.726562 C 97.054688 242.84375 97.503906 242.875 97.960938 242.816406 C 98.414062 242.753906 98.84375 242.609375 99.238281 242.378906 Z M 99.238281 242.378906 " fill-opacity="1" fill-rule="nonzero"/><path fill="#000000" d="M 149.273438 246.761719 L 139.644531 263.441406 C 139.414062 263.839844 139.269531 264.269531 139.207031 264.722656 C 139.148438 265.179688 139.175781 265.628906 139.296875 266.074219 C 139.414062 266.519531 139.613281 266.925781 139.894531 267.289062 C 140.171875 267.652344 140.511719 267.953125 140.910156 268.179688 C 141.308594 268.410156 141.738281 268.554688 142.191406 268.617188 C 142.648438 268.675781 143.097656 268.648438 143.542969 268.527344 C 143.988281 268.40625 144.390625 268.207031 144.757812 267.925781 C 145.121094 267.648438 145.417969 267.308594 145.648438 266.910156 L 155.277344 250.226562 C 155.507812 249.828125 155.652344 249.402344 155.710938 248.945312 C 155.769531 248.492188 155.738281 248.042969 155.621094 247.597656 C 155.5 247.152344 155.300781 246.75 155.023438 246.386719 C 154.742188 246.019531 154.402344 245.722656 154.007812 245.496094 C 153.609375 245.265625 153.179688 245.121094 152.726562 245.058594 C 152.269531 245 151.820312 245.027344 151.378906 245.148438 C 150.933594 245.265625 150.53125 245.464844 150.164062 245.746094 C 149.800781 246.023438 149.503906 246.363281 149.273438 246.761719 Z M 149.273438 246.761719 " fill-opacity="1" fill-rule="nonzero"/><path fill="#000000" d="M 184.085938 257.945312 L 184.085938 291.371094 C 184.085938 291.832031 184.175781 292.273438 184.351562 292.699219 C 184.527344 293.125 184.777344 293.5 185.101562 293.824219 C 185.425781 294.148438 185.800781 294.398438 186.226562 294.574219 C 186.652344 294.75 187.09375 294.839844 187.550781 294.839844 C 188.011719 294.839844 188.453125 294.75 188.878906 294.574219 C 189.304688 294.398438 189.679688 294.148438 190.003906 293.824219 C 190.328125 293.5 190.578125 293.125 190.753906 292.699219 C 190.929688 292.273438 191.019531 291.832031 191.019531 291.371094 L 191.019531 257.945312 C 191.019531 257.488281 190.929688 257.042969 190.753906 256.621094 C 190.578125 256.195312 190.328125 255.820312 190.003906 255.496094 C 189.679688 255.171875 189.304688 254.917969 188.878906 254.742188 C 188.453125 254.566406 188.011719 254.480469 187.550781 254.480469 C 187.09375 254.480469 186.652344 254.566406 186.226562 254.742188 C 185.800781 254.917969 185.425781 255.171875 185.101562 255.496094 C 184.777344 255.820312 184.527344 256.195312 184.351562 256.621094 C 184.175781 257.042969 184.085938 257.488281 184.085938 257.945312 Z M 184.085938 257.945312 " fill-opacity="1" fill-rule="nonzero"/><path fill="#000000" d="M 221.097656 245.492188 C 220.699219 245.722656 220.359375 246.019531 220.078125 246.382812 C 219.800781 246.746094 219.601562 247.152344 219.480469 247.597656 C 219.363281 248.039062 219.332031 248.488281 219.394531 248.945312 C 219.453125 249.402344 219.597656 249.828125 219.828125 250.226562 L 229.457031 266.910156 C 229.6875 267.308594 229.984375 267.644531 230.347656 267.925781 C 230.710938 268.207031 231.117188 268.40625 231.5625 268.523438 C 232.003906 268.644531 232.453125 268.671875 232.910156 268.613281 C 233.367188 268.554688 233.792969 268.40625 234.191406 268.179688 C 234.589844 267.949219 234.929688 267.652344 235.207031 267.285156 C 235.488281 266.921875 235.6875 266.515625 235.808594 266.074219 C 235.925781 265.628906 235.957031 265.179688 235.894531 264.722656 C 235.835938 264.265625 235.691406 263.839844 235.460938 263.441406 L 225.832031 246.761719 C 225.601562 246.363281 225.304688 246.023438 224.941406 245.742188 C 224.574219 245.464844 224.171875 245.265625 223.726562 245.144531 C 223.28125 245.027344 222.832031 244.996094 222.378906 245.054688 C 221.921875 245.117188 221.496094 245.261719 221.097656 245.492188 Z M 221.097656 245.492188 " fill-opacity="1" fill-rule="nonzero"/><g clip-path="url(#06a7f71fce)"><path fill="#000000" d="M 246.921875 225.667969 L 275.863281 242.378906 C 276.261719 242.609375 276.691406 242.753906 277.144531 242.816406 C 277.601562 242.875 278.050781 242.84375 278.496094 242.726562 C 278.9375 242.605469 279.34375 242.40625 279.707031 242.128906 C 280.074219 241.847656 280.371094 241.507812 280.601562 241.109375 C 280.828125 240.710938 280.972656 240.285156 281.035156 239.828125 C 281.09375 239.375 281.066406 238.925781 280.945312 238.480469 C 280.828125 238.035156 280.628906 237.632812 280.347656 237.265625 C 280.066406 236.902344 279.730469 236.605469 279.332031 236.375 L 250.386719 219.664062 C 249.988281 219.433594 249.5625 219.289062 249.105469 219.230469 C 248.652344 219.171875 248.203125 219.199219 247.757812 219.320312 C 247.316406 219.4375 246.910156 219.640625 246.546875 219.917969 C 246.183594 220.199219 245.886719 220.535156 245.65625 220.933594 C 245.425781 221.332031 245.28125 221.757812 245.222656 222.214844 C 245.164062 222.667969 245.191406 223.117188 245.308594 223.5625 C 245.429688 224.007812 245.628906 224.410156 245.90625 224.773438 C 246.1875 225.140625 246.523438 225.4375 246.921875 225.667969 Z M 246.921875 225.667969 " fill-opacity="1" fill-rule="nonzero"/></g><path fill="#000000" d="M 277.367188 183.914062 L 258.105469 183.914062 C 257.644531 183.914062 257.203125 184.003906 256.777344 184.179688 C 256.355469 184.355469 255.980469 184.605469 255.65625 184.929688 C 255.328125 185.257812 255.078125 185.628906 254.902344 186.054688 C 254.726562 186.480469 254.640625 186.921875 254.640625 187.382812 C 254.640625 187.839844 254.726562 188.285156 254.902344 188.707031 C 255.078125 189.132812 255.328125 189.507812 255.65625 189.832031 C 255.980469 190.15625 256.355469 190.410156 256.777344 190.585938 C 257.203125 190.761719 257.644531 190.847656 258.105469 190.847656 L 277.367188 190.847656 C 277.824219 190.847656 278.265625 190.761719 278.691406 190.585938 C 279.117188 190.410156 279.492188 190.15625 279.816406 189.832031 C 280.140625 189.507812 280.390625 189.132812 280.566406 188.707031 C 280.742188 188.285156 280.832031 187.839844 280.832031 187.382812 C 280.832031 186.921875 280.742188 186.480469 280.566406 186.054688 C 280.390625 185.628906 280.140625 185.257812 279.816406 184.929688 C 279.492188 184.605469 279.117188 184.355469 278.691406 184.179688 C 278.265625 184.003906 277.824219 183.914062 277.367188 183.914062 Z M 277.367188 183.914062 " fill-opacity="1" fill-rule="nonzero"/><g clip-path="url(#7a60cab85b)"><path fill="#000000" d="M 250.386719 155.101562 L 279.332031 138.390625 C 279.730469 138.160156 280.070312 137.863281 280.347656 137.496094 C 280.628906 137.132812 280.828125 136.726562 280.949219 136.285156 C 281.066406 135.839844 281.097656 135.390625 281.039062 134.933594 C 280.976562 134.476562 280.832031 134.050781 280.601562 133.652344 C 280.371094 133.253906 280.074219 132.914062 279.710938 132.632812 C 279.34375 132.355469 278.941406 132.15625 278.496094 132.035156 C 278.050781 131.917969 277.601562 131.886719 277.144531 131.949219 C 276.691406 132.007812 276.261719 132.152344 275.863281 132.382812 L 246.921875 149.097656 C 246.523438 149.328125 246.183594 149.625 245.90625 149.988281 C 245.625 150.351562 245.425781 150.757812 245.308594 151.203125 C 245.191406 151.644531 245.160156 152.09375 245.222656 152.550781 C 245.28125 153.003906 245.425781 153.433594 245.65625 153.832031 C 245.886719 154.226562 246.183594 154.566406 246.546875 154.847656 C 246.910156 155.125 247.316406 155.328125 247.757812 155.445312 C 248.203125 155.566406 248.652344 155.59375 249.105469 155.535156 C 249.5625 155.476562 249.988281 155.332031 250.386719 155.101562 Z M 250.386719 155.101562 " fill-opacity="1" fill-rule="nonzero"/></g><path fill="#000000" d="M 221.097656 129.273438 C 221.496094 129.503906 221.921875 129.648438 222.378906 129.707031 C 222.832031 129.765625 223.28125 129.738281 223.726562 129.617188 C 224.171875 129.5 224.574219 129.300781 224.941406 129.019531 C 225.304688 128.742188 225.601562 128.402344 225.832031 128.003906 L 235.460938 111.320312 C 235.691406 110.921875 235.835938 110.496094 235.894531 110.039062 C 235.957031 109.585938 235.925781 109.136719 235.808594 108.691406 C 235.6875 108.246094 235.488281 107.84375 235.207031 107.476562 C 234.929688 107.113281 234.589844 106.816406 234.191406 106.585938 C 233.792969 106.355469 233.367188 106.210938 232.910156 106.152344 C 232.453125 106.089844 232.003906 106.121094 231.5625 106.238281 C 231.117188 106.359375 230.710938 106.558594 230.347656 106.839844 C 229.984375 107.117188 229.6875 107.457031 229.457031 107.855469 L 219.828125 124.535156 C 219.597656 124.933594 219.453125 125.363281 219.394531 125.816406 C 219.332031 126.273438 219.363281 126.722656 219.480469 127.167969 C 219.601562 127.613281 219.800781 128.015625 220.078125 128.382812 C 220.359375 128.746094 220.699219 129.042969 221.097656 129.273438 Z M 221.097656 129.273438 " fill-opacity="1" fill-rule="nonzero"/></svg>