<svg xmlns="http://www.w3.org/2000/svg" xmlns:xlink="http://www.w3.org/1999/xlink" width="500" zoomAndPan="magnify" viewBox="0 0 375 374.999991" height="500" preserveAspectRatio="xMidYMid meet" version="1.0"><defs><clipPath id="9cd921aa8f"><path d="M 145 174 L 232 174 L 232 280.6875 L 145 280.6875 Z M 145 174 " clip-rule="nonzero"/></clipPath><clipPath id="abb17d7bf5"><path d="M 87 94.6875 L 288 94.6875 L 288 221 L 87 221 Z M 87 94.6875 " clip-rule="nonzero"/></clipPath></defs><rect x="-37.5" width="450" fill="#ffffff" y="-37.499999" height="449.999989" fill-opacity="1"/><rect x="-37.5" width="450" fill="#ffffff" y="-37.499999" height="449.999989" fill-opacity="1"/><g clip-path="url(#9cd921aa8f)"><path fill="#000000" d="M 180.15625 176.25 L 146.496094 229 C 146.144531 229.550781 145.957031 230.152344 145.933594 230.808594 C 145.910156 231.460938 146.054688 232.074219 146.367188 232.652344 C 146.679688 233.226562 147.117188 233.679688 147.675781 234.015625 C 148.238281 234.351562 148.84375 234.519531 149.496094 234.523438 L 177.421875 234.675781 L 170.253906 276.339844 C 170.183594 276.734375 170.183594 277.132812 170.246094 277.527344 C 170.3125 277.925781 170.4375 278.300781 170.628906 278.652344 C 170.816406 279.007812 171.058594 279.320312 171.355469 279.589844 C 171.648438 279.863281 171.980469 280.078125 172.347656 280.242188 C 172.714844 280.402344 173.097656 280.496094 173.496094 280.53125 C 173.894531 280.5625 174.289062 280.527344 174.675781 280.429688 C 175.066406 280.328125 175.425781 280.167969 175.757812 279.945312 C 176.09375 279.722656 176.382812 279.453125 176.625 279.136719 L 231.195312 207.804688 C 231.605469 207.253906 231.835938 206.640625 231.898438 205.960938 C 231.957031 205.28125 231.835938 204.636719 231.53125 204.023438 C 231.226562 203.414062 230.785156 202.929688 230.207031 202.570312 C 229.625 202.210938 228.996094 202.027344 228.3125 202.027344 L 203.28125 202.304688 L 218.664062 180.238281 C 219.035156 179.6875 219.242188 179.082031 219.277344 178.417969 C 219.316406 177.753906 219.183594 177.125 218.875 176.535156 C 218.570312 175.945312 218.132812 175.476562 217.566406 175.128906 C 217.003906 174.78125 216.386719 174.601562 215.722656 174.59375 L 183.175781 174.59375 C 182.5625 174.59375 181.988281 174.738281 181.453125 175.035156 C 180.917969 175.328125 180.484375 175.734375 180.15625 176.25 Z M 208.851562 181.773438 L 193.417969 203.914062 C 193.042969 204.464844 192.839844 205.074219 192.800781 205.742188 C 192.765625 206.410156 192.902344 207.039062 193.214844 207.628906 C 193.527344 208.222656 193.96875 208.691406 194.539062 209.035156 C 195.109375 209.382812 195.726562 209.558594 196.394531 209.558594 L 221.027344 209.289062 L 179.785156 263.203125 L 185.203125 231.714844 C 185.246094 231.460938 185.257812 231.203125 185.246094 230.941406 C 185.230469 230.679688 185.191406 230.425781 185.121094 230.175781 C 185.054688 229.925781 184.960938 229.683594 184.839844 229.453125 C 184.71875 229.222656 184.574219 229.007812 184.410156 228.808594 C 184.242188 228.609375 184.054688 228.429688 183.851562 228.269531 C 183.644531 228.109375 183.425781 227.976562 183.191406 227.863281 C 182.957031 227.753906 182.710938 227.667969 182.460938 227.609375 C 182.207031 227.550781 181.949219 227.519531 181.691406 227.515625 L 156.035156 227.378906 L 185.136719 181.773438 Z M 208.851562 181.773438 " fill-opacity="1" fill-rule="nonzero"/></g><g clip-path="url(#abb17d7bf5)"><path fill="#000000" d="M 258.128906 154.214844 C 258.105469 152.714844 257.988281 151.226562 257.765625 149.746094 C 257.542969 148.261719 257.226562 146.804688 256.808594 145.363281 C 256.390625 143.925781 255.878906 142.523438 255.273438 141.152344 C 254.667969 139.785156 253.972656 138.460938 253.1875 137.1875 C 252.402344 135.910156 251.535156 134.695312 250.589844 133.535156 C 249.640625 132.378906 248.621094 131.289062 247.527344 130.265625 C 246.429688 129.246094 245.273438 128.304688 244.050781 127.441406 C 242.832031 126.574219 241.558594 125.796875 240.230469 125.105469 C 239.492188 122.917969 238.589844 120.804688 237.523438 118.757812 C 236.457031 116.714844 235.242188 114.761719 233.871094 112.90625 C 232.503906 111.050781 231 109.3125 229.359375 107.691406 C 227.722656 106.070312 225.96875 104.582031 224.101562 103.234375 C 222.230469 101.886719 220.269531 100.691406 218.214844 99.648438 C 216.160156 98.605469 214.039062 97.726562 211.847656 97.011719 C 209.65625 96.300781 207.425781 95.761719 205.152344 95.394531 C 202.878906 95.03125 200.589844 94.84375 198.285156 94.832031 C 197.015625 94.828125 195.742188 94.875 194.476562 94.980469 C 193.207031 95.085938 191.945312 95.246094 190.691406 95.457031 C 189.4375 95.671875 188.195312 95.941406 186.964844 96.261719 C 185.734375 96.585938 184.519531 96.960938 183.320312 97.386719 C 182.121094 97.816406 180.941406 98.296875 179.785156 98.824219 C 178.628906 99.355469 177.496094 99.9375 176.390625 100.566406 C 175.285156 101.195312 174.207031 101.871094 173.160156 102.59375 C 172.109375 103.316406 171.09375 104.082031 170.113281 104.894531 C 169.132812 105.703125 168.1875 106.558594 167.277344 107.449219 C 166.371094 108.34375 165.503906 109.273438 164.675781 110.242188 C 163.851562 111.210938 163.066406 112.214844 162.324219 113.253906 C 161.585938 114.289062 160.890625 115.355469 160.242188 116.453125 C 159.597656 117.550781 158.996094 118.675781 158.445312 119.824219 C 157.898438 120.972656 157.398438 122.144531 156.949219 123.339844 C 156.5 124.53125 156.101562 125.742188 155.757812 126.96875 C 155.414062 128.195312 155.125 129.4375 154.890625 130.691406 C 152.796875 130.265625 150.683594 130.058594 148.546875 130.058594 C 146.757812 130.0625 144.980469 130.207031 143.210938 130.496094 C 141.445312 130.789062 139.714844 131.21875 138.015625 131.789062 C 136.320312 132.363281 134.679688 133.066406 133.09375 133.902344 C 131.511719 134.738281 130.003906 135.699219 128.574219 136.777344 C 127.144531 137.859375 125.8125 139.050781 124.578125 140.347656 C 123.339844 141.644531 122.214844 143.03125 121.199219 144.511719 C 120.1875 145.988281 119.300781 147.539062 118.535156 149.164062 C 117.773438 150.785156 117.144531 152.460938 116.652344 154.1875 C 75.4375 159.933594 78.242188 218.992188 120.128906 220.402344 L 141.488281 220.402344 C 141.957031 220.394531 142.40625 220.296875 142.839844 220.109375 C 143.269531 219.925781 143.652344 219.664062 143.980469 219.328125 C 144.308594 218.992188 144.5625 218.605469 144.742188 218.171875 C 144.917969 217.734375 145.007812 217.28125 145.007812 216.8125 C 145.007812 216.339844 144.917969 215.886719 144.742188 215.453125 C 144.5625 215.015625 144.308594 214.628906 143.980469 214.292969 C 143.652344 213.960938 143.269531 213.699219 142.839844 213.511719 C 142.40625 213.328125 141.957031 213.230469 141.488281 213.21875 L 120.128906 213.21875 C 86.101562 212.042969 85.59375 163.140625 119.59375 161.191406 C 120.003906 161.183594 120.398438 161.105469 120.78125 160.960938 C 121.167969 160.816406 121.515625 160.613281 121.828125 160.347656 C 122.140625 160.082031 122.402344 159.773438 122.609375 159.421875 C 122.816406 159.066406 122.960938 158.6875 123.039062 158.285156 C 123.21875 157.382812 123.445312 156.492188 123.71875 155.617188 C 123.992188 154.738281 124.308594 153.878906 124.671875 153.03125 C 125.039062 152.1875 125.445312 151.367188 125.894531 150.566406 C 126.347656 149.765625 126.839844 148.992188 127.371094 148.242188 C 127.90625 147.492188 128.476562 146.773438 129.085938 146.085938 C 129.691406 145.398438 130.335938 144.746094 131.015625 144.125 C 131.691406 143.503906 132.398438 142.921875 133.140625 142.378906 C 133.878906 141.832031 134.644531 141.328125 135.4375 140.867188 C 136.230469 140.402344 137.042969 139.984375 137.882812 139.605469 C 138.71875 139.226562 139.574219 138.898438 140.445312 138.609375 C 141.316406 138.324219 142.199219 138.082031 143.097656 137.890625 C 143.996094 137.699219 144.898438 137.554688 145.8125 137.457031 C 146.726562 137.359375 147.640625 137.3125 148.558594 137.3125 C 149.476562 137.3125 150.390625 137.359375 151.304688 137.457031 C 152.214844 137.554688 153.121094 137.703125 154.015625 137.894531 C 154.914062 138.085938 155.800781 138.328125 156.671875 138.613281 C 156.925781 138.703125 157.191406 138.761719 157.460938 138.792969 C 157.730469 138.820312 158 138.820312 158.269531 138.785156 C 158.539062 138.753906 158.804688 138.691406 159.058594 138.601562 C 159.316406 138.507812 159.558594 138.390625 159.785156 138.242188 C 160.015625 138.097656 160.226562 137.925781 160.414062 137.730469 C 160.605469 137.539062 160.773438 137.324219 160.914062 137.09375 C 161.058594 136.859375 161.171875 136.617188 161.257812 136.359375 C 161.347656 136.101562 161.402344 135.835938 161.429688 135.566406 C 161.535156 134.429688 161.691406 133.296875 161.898438 132.175781 C 162.105469 131.050781 162.367188 129.941406 162.675781 128.839844 C 162.988281 127.742188 163.351562 126.660156 163.761719 125.59375 C 164.171875 124.53125 164.632812 123.484375 165.140625 122.464844 C 165.648438 121.441406 166.203125 120.445312 166.804688 119.472656 C 167.40625 118.503906 168.050781 117.5625 168.738281 116.648438 C 169.425781 115.738281 170.152344 114.863281 170.921875 114.019531 C 171.691406 113.175781 172.496094 112.371094 173.339844 111.601562 C 174.183594 110.832031 175.0625 110.105469 175.972656 109.421875 C 176.886719 108.734375 177.828125 108.089844 178.796875 107.492188 C 179.769531 106.894531 180.765625 106.339844 181.785156 105.835938 C 182.808594 105.328125 183.851562 104.871094 184.914062 104.460938 C 185.980469 104.050781 187.0625 103.695312 188.160156 103.386719 C 189.257812 103.078125 190.367188 102.820312 191.488281 102.613281 C 192.609375 102.410156 193.738281 102.257812 194.875 102.15625 C 196.007812 102.054688 197.148438 102.007812 198.285156 102.015625 C 200.273438 102.023438 202.246094 102.1875 204.203125 102.511719 C 206.164062 102.835938 208.085938 103.3125 209.96875 103.945312 C 211.851562 104.578125 213.675781 105.355469 215.433594 106.277344 C 217.191406 107.203125 218.867188 108.257812 220.457031 109.453125 C 222.046875 110.644531 223.535156 111.957031 224.914062 113.386719 C 226.296875 114.816406 227.554688 116.347656 228.691406 117.980469 C 229.828125 119.609375 230.828125 121.324219 231.691406 123.117188 C 232.554688 124.90625 233.269531 126.757812 233.835938 128.664062 C 233.984375 129.164062 234.226562 129.609375 234.566406 130.003906 C 234.90625 130.394531 235.308594 130.699219 235.78125 130.917969 C 236.90625 131.4375 237.992188 132.03125 239.03125 132.707031 C 240.074219 133.378906 241.058594 134.125 241.996094 134.9375 C 242.929688 135.753906 243.800781 136.628906 244.613281 137.570312 C 245.421875 138.507812 246.164062 139.5 246.832031 140.542969 C 247.5 141.589844 248.09375 142.675781 248.609375 143.804688 C 249.121094 144.933594 249.554688 146.09375 249.902344 147.285156 C 250.253906 148.476562 250.515625 149.6875 250.695312 150.914062 C 250.871094 152.144531 250.960938 153.378906 250.960938 154.621094 C 251.027344 156.425781 250.332031 158.546875 251.8125 160 C 252.550781 160.792969 253.460938 161.191406 254.546875 161.191406 C 288.867188 162.390625 288.890625 211.996094 254.546875 213.21875 L 237.847656 213.21875 C 237.375 213.21875 236.917969 213.3125 236.476562 213.492188 C 236.039062 213.675781 235.652344 213.933594 235.316406 214.273438 C 234.976562 214.609375 234.71875 214.996094 234.539062 215.4375 C 234.355469 215.878906 234.265625 216.335938 234.265625 216.8125 C 234.265625 217.289062 234.355469 217.746094 234.539062 218.183594 C 234.71875 218.625 234.976562 219.011719 235.316406 219.351562 C 235.652344 219.6875 236.039062 219.945312 236.476562 220.128906 C 236.917969 220.3125 237.375 220.402344 237.847656 220.402344 L 254.546875 220.402344 C 296.21875 219.042969 299.347656 160.039062 258.128906 154.214844 Z M 258.128906 154.214844 " fill-opacity="1" fill-rule="nonzero"/></g><path fill="#000000" d="M 220.082031 132.71875 C 221.0625 135.25 221.535156 140.5 223.875 141.273438 C 226.257812 142.53125 228.742188 143.546875 231.320312 144.324219 C 231.726562 144.316406 232.117188 144.242188 232.496094 144.101562 C 232.875 143.960938 233.222656 143.761719 233.535156 143.503906 C 233.84375 143.246094 234.105469 142.941406 234.316406 142.597656 C 234.527344 142.25 234.675781 141.878906 234.761719 141.484375 C 234.847656 141.089844 234.867188 140.691406 234.820312 140.289062 C 234.769531 139.886719 234.660156 139.503906 234.480469 139.136719 C 234.304688 138.773438 234.074219 138.449219 233.789062 138.164062 C 233.5 137.875 233.175781 137.644531 232.8125 137.46875 L 228.34375 135.421875 C 228.203125 134.53125 228.023438 133.644531 227.804688 132.769531 C 227.585938 131.890625 227.332031 131.023438 227.039062 130.171875 C 226.746094 129.316406 226.414062 128.476562 226.046875 127.648438 C 225.683594 126.824219 225.28125 126.015625 224.84375 125.222656 C 224.40625 124.433594 223.9375 123.664062 223.433594 122.914062 C 222.929688 122.164062 222.394531 121.4375 221.824219 120.734375 C 221.257812 120.03125 220.660156 119.355469 220.035156 118.703125 C 219.410156 118.054688 218.753906 117.429688 218.074219 116.839844 C 217.394531 116.246094 216.6875 115.683594 215.960938 115.148438 C 215.230469 114.617188 214.480469 114.121094 213.707031 113.652344 C 212.933594 113.1875 212.140625 112.757812 211.332031 112.359375 C 210.519531 111.960938 209.691406 111.601562 208.851562 111.277344 C 208.007812 110.953125 207.15625 110.667969 206.289062 110.417969 C 205.421875 110.167969 204.542969 109.957031 203.660156 109.78125 C 202.773438 109.609375 201.882812 109.476562 200.984375 109.382812 C 200.085938 109.285156 199.1875 109.230469 198.285156 109.214844 C 197.816406 109.222656 197.367188 109.320312 196.9375 109.507812 C 196.503906 109.695312 196.125 109.953125 195.796875 110.289062 C 195.46875 110.625 195.214844 111.011719 195.039062 111.445312 C 194.859375 111.882812 194.773438 112.335938 194.773438 112.804688 C 194.773438 113.273438 194.859375 113.726562 195.039062 114.164062 C 195.214844 114.597656 195.46875 114.984375 195.796875 115.320312 C 196.125 115.65625 196.503906 115.917969 196.9375 116.101562 C 197.367188 116.289062 197.816406 116.386719 198.285156 116.394531 C 199.503906 116.398438 200.714844 116.5 201.914062 116.699219 C 203.117188 116.894531 204.292969 117.1875 205.449219 117.574219 C 206.601562 117.960938 207.71875 118.4375 208.796875 119.003906 C 209.878906 119.566406 210.902344 120.214844 211.878906 120.945312 C 212.855469 121.675781 213.765625 122.480469 214.613281 123.355469 C 215.457031 124.234375 216.230469 125.171875 216.925781 126.171875 C 217.625 127.171875 218.238281 128.222656 218.765625 129.320312 C 219.296875 130.417969 219.734375 131.550781 220.082031 132.71875 Z M 220.082031 132.71875 " fill-opacity="1" fill-rule="nonzero"/></svg>