<svg xmlns="http://www.w3.org/2000/svg" xmlns:xlink="http://www.w3.org/1999/xlink" width="500" zoomAndPan="magnify" viewBox="0 0 375 374.999991" height="500" preserveAspectRatio="xMidYMid meet" version="1.0"><defs><clipPath id="737fe88673"><path d="M 65.011719 113 L 310.261719 113 L 310.261719 228 L 65.011719 228 Z M 65.011719 113 " clip-rule="nonzero"/></clipPath><clipPath id="f8a5016661"><path d="M 231 257 L 296 257 L 296 262.1875 L 231 262.1875 Z M 231 257 " clip-rule="nonzero"/></clipPath></defs><rect x="-37.5" width="450" fill="#ffffff" y="-37.499999" height="449.999989" fill-opacity="1"/><rect x="-37.5" width="450" fill="#ffffff" y="-37.499999" height="449.999989" fill-opacity="1"/><g clip-path="url(#737fe88673)"><path fill="#000000" d="M 308.035156 169.433594 L 281.859375 169.433594 C 280.992188 168.175781 280.074219 166.949219 279.042969 165.785156 C 272.175781 158.03125 262.617188 153.425781 252.117188 152.8125 C 251.5 152.773438 250.894531 152.75 250.289062 152.761719 C 250.773438 150.875 251.0625 149.054688 251.175781 147.253906 C 251.695312 138.917969 248.894531 130.839844 243.289062 124.511719 C 237.425781 117.890625 229.246094 113.957031 220.257812 113.429688 C 208.296875 112.730469 196.671875 118.535156 190.332031 128.367188 C 183.453125 123.441406 175.398438 120.589844 166.910156 120.09375 C 142.800781 118.695312 121.964844 136.566406 120.5 159.957031 C 120.429688 161.058594 120.417969 162.199219 120.457031 163.402344 C 119.855469 163.328125 119.242188 163.265625 118.621094 163.230469 C 100.417969 162.125 84.828125 175.605469 83.730469 193.183594 C 83.675781 194.082031 83.675781 194.972656 83.695312 195.863281 L 67.242188 195.863281 C 66.03125 195.863281 65.050781 196.839844 65.050781 198.050781 C 65.050781 199.261719 66.03125 200.238281 67.242188 200.238281 L 84.121094 200.238281 C 85.078125 205.988281 87.621094 211.402344 91.628906 215.921875 C 94.242188 218.875 97.335938 221.257812 100.734375 223.078125 L 76.816406 223.078125 C 75.605469 223.078125 74.628906 224.054688 74.628906 225.265625 C 74.628906 226.476562 75.605469 227.453125 76.816406 227.453125 L 295.199219 227.453125 C 296.410156 227.453125 297.386719 226.476562 297.386719 225.265625 C 297.386719 224.054688 296.410156 223.078125 295.199219 223.078125 L 267.839844 223.078125 C 274.398438 219.695312 279.84375 214.519531 283.476562 208.195312 L 293.667969 208.195312 C 294.878906 208.195312 295.859375 207.214844 295.859375 206.003906 C 295.859375 204.796875 294.878906 203.816406 293.667969 203.816406 L 285.621094 203.816406 C 287.085938 200.242188 288.023438 196.402344 288.277344 192.363281 C 288.683594 185.871094 287.324219 179.527344 284.449219 173.8125 L 308.035156 173.8125 C 309.246094 173.8125 310.222656 172.832031 310.222656 171.621094 C 310.222656 170.414062 309.246094 169.433594 308.035156 169.433594 Z M 283.90625 192.089844 C 283.648438 196.273438 282.554688 200.21875 280.847656 203.816406 L 233.898438 203.816406 C 232.6875 203.816406 231.707031 204.796875 231.707031 206.003906 C 231.707031 207.214844 232.6875 208.195312 233.898438 208.195312 L 278.347656 208.195312 C 271.851562 217.726562 260.421875 223.761719 247.71875 223.015625 C 247.570312 223.007812 247.4375 223.058594 247.292969 223.078125 L 116.023438 223.078125 C 115.699219 222.84375 115.332031 222.667969 114.902344 222.640625 C 107.101562 222.183594 100 218.765625 94.90625 213.019531 C 91.625 209.3125 89.488281 204.914062 88.574219 200.238281 L 127.007812 200.238281 C 128.21875 200.238281 129.195312 199.261719 129.195312 198.050781 C 129.195312 196.839844 128.21875 195.863281 127.007812 195.863281 L 88.070312 195.863281 C 88.046875 195.0625 88.050781 194.261719 88.101562 193.457031 C 89.050781 178.28125 102.632812 166.707031 118.367188 167.597656 C 119.542969 167.667969 120.675781 167.835938 121.808594 168.046875 C 122.632812 168.195312 123.59375 168.078125 124.089844 167.402344 C 124.4375 166.929688 124.972656 165.492188 124.949219 165.222656 C 124.800781 163.398438 124.773438 161.765625 124.871094 160.230469 C 126.183594 139.234375 144.902344 123.167969 166.652344 124.460938 C 174.890625 124.945312 182.683594 127.886719 189.171875 132.96875 C 189.789062 133.453125 190.589844 133.6875 191.347656 133.488281 C 191.679688 133.398438 193.019531 132.398438 193.144531 132.175781 C 198.394531 122.792969 208.902344 117.132812 220.003906 117.796875 C 227.824219 118.257812 234.929688 121.671875 240.011719 127.414062 C 244.84375 132.867188 247.253906 139.816406 246.804688 146.980469 C 246.671875 149.140625 246.070312 151.308594 245.445312 153.746094 C 245.351562 154.121094 245.683594 155.949219 245.859375 156.175781 C 246.394531 156.875 247.230469 157.277344 248.140625 157.210938 C 249.363281 157.140625 250.597656 157.113281 251.863281 157.179688 C 261.1875 157.726562 269.675781 161.8125 275.765625 168.6875 C 275.980469 168.929688 276.164062 169.1875 276.367188 169.433594 L 248.269531 169.433594 C 247.058594 169.433594 246.078125 170.414062 246.078125 171.621094 C 246.078125 172.832031 247.058594 173.8125 248.269531 173.8125 L 279.5 173.8125 C 282.765625 179.328125 284.3125 185.636719 283.90625 192.089844 Z M 283.90625 192.089844 " fill-opacity="1" fill-rule="nonzero"/></g><path fill="#000000" d="M 238.210938 184.496094 L 178.441406 184.496094 C 177.230469 184.496094 176.25 185.472656 176.25 186.683594 C 176.25 187.894531 177.230469 188.871094 178.441406 188.871094 L 238.210938 188.871094 C 239.421875 188.871094 240.402344 187.894531 240.402344 186.683594 C 240.402344 185.472656 239.421875 184.496094 238.210938 184.496094 Z M 238.210938 184.496094 " fill-opacity="1" fill-rule="nonzero"/><path fill="#000000" d="M 149.710938 247.292969 L 89.9375 247.292969 C 88.730469 247.292969 87.75 248.273438 87.75 249.480469 C 87.75 250.691406 88.730469 251.671875 89.9375 251.671875 L 149.710938 251.671875 C 150.917969 251.671875 151.898438 250.691406 151.898438 249.480469 C 151.898438 248.273438 150.917969 247.292969 149.710938 247.292969 Z M 149.710938 247.292969 " fill-opacity="1" fill-rule="nonzero"/><path fill="#000000" d="M 224.417969 243.03125 L 164.648438 243.03125 C 163.4375 243.03125 162.460938 244.011719 162.460938 245.222656 C 162.460938 246.429688 163.4375 247.410156 164.648438 247.410156 L 224.417969 247.410156 C 225.628906 247.410156 226.609375 246.429688 226.609375 245.222656 C 226.609375 244.011719 225.628906 243.03125 224.417969 243.03125 Z M 224.417969 243.03125 " fill-opacity="1" fill-rule="nonzero"/><g clip-path="url(#f8a5016661)"><path fill="#000000" d="M 293.667969 257.808594 L 233.898438 257.808594 C 232.6875 257.808594 231.707031 258.789062 231.707031 259.996094 C 231.707031 261.207031 232.6875 262.1875 233.898438 262.1875 L 293.667969 262.1875 C 294.878906 262.1875 295.859375 261.207031 295.859375 259.996094 C 295.859375 258.789062 294.878906 257.808594 293.667969 257.808594 Z M 293.667969 257.808594 " fill-opacity="1" fill-rule="nonzero"/></g><path fill="#000000" d="M 205.738281 200.976562 L 145.972656 200.976562 C 144.761719 200.976562 143.785156 201.957031 143.785156 203.164062 C 143.785156 204.375 144.761719 205.355469 145.972656 205.355469 L 205.738281 205.355469 C 206.949219 205.355469 207.929688 204.375 207.929688 203.164062 C 207.929688 201.957031 206.949219 200.976562 205.738281 200.976562 Z M 205.738281 200.976562 " fill-opacity="1" fill-rule="nonzero"/></svg>