<svg xmlns="http://www.w3.org/2000/svg" xmlns:xlink="http://www.w3.org/1999/xlink" width="500" zoomAndPan="magnify" viewBox="0 0 375 374.999991" height="500" preserveAspectRatio="xMidYMid meet" version="1.0"><defs><clipPath id="f9d568767a"><path d="M 83 89.441406 L 293 89.441406 L 293 285.191406 L 83 285.191406 Z M 83 89.441406 " clip-rule="nonzero"/></clipPath></defs><rect x="-37.5" width="450" fill="#ffffff" y="-37.499999" height="449.999989" fill-opacity="1"/><rect x="-37.5" width="450" fill="#ffffff" y="-37.499999" height="449.999989" fill-opacity="1"/><g clip-path="url(#f9d568767a)"><path fill="#000000" d="M 181.09375 95.964844 C 190.6875 95.964844 199.269531 98.46875 206.84375 103.480469 L 206.839844 103.480469 C 214.515625 108.929688 219.136719 115.519531 220.707031 123.253906 C 220.945312 124.425781 221.785156 125.320312 222.84375 125.683594 L 222.839844 125.683594 C 221.242188 127.15625 219.816406 128.957031 218.558594 131.089844 C 218.484375 131.21875 218.417969 131.351562 218.359375 131.492188 C 216.242188 136.585938 216.152344 140.976562 218.09375 144.671875 C 218.113281 144.707031 218.132812 144.742188 218.152344 144.777344 C 220.945312 149.644531 225.132812 152.519531 230.707031 153.40625 C 230.804688 153.421875 230.898438 153.433594 231 153.441406 C 231.597656 153.480469 232.175781 153.503906 232.734375 153.503906 C 238.820312 153.503906 242.578125 151.097656 244.007812 146.292969 C 244.519531 144.570312 243.535156 142.757812 241.808594 142.246094 C 241.5 142.15625 241.1875 142.113281 240.878906 142.113281 C 239.476562 142.113281 238.175781 143.027344 237.757812 144.441406 C 237.25 146.140625 235.539062 146.992188 232.625 146.992188 C 232.296875 146.992188 231.953125 146.980469 231.59375 146.960938 L 231.589844 146.960938 C 228.179688 146.382812 225.605469 144.609375 223.867188 141.648438 C 222.894531 139.800781 223.035156 137.320312 224.289062 134.210938 L 224.285156 134.210938 C 226.277344 130.894531 228.769531 128.777344 231.757812 127.863281 L 231.839844 127.839844 C 234.378906 126.988281 236.78125 126.5625 239.054688 126.5625 C 246.304688 126.5625 252.207031 130.890625 256.753906 139.554688 C 259.644531 145.285156 260.949219 150.558594 260.664062 155.375 L 260.660156 155.375 C 260.015625 160.566406 257.503906 165.441406 253.128906 170.007812 C 251.882812 171.304688 251.929688 173.363281 253.230469 174.605469 C 253.863281 175.207031 254.675781 175.507812 255.484375 175.507812 C 256.34375 175.507812 257.199219 175.171875 257.839844 174.503906 C 259.445312 172.828125 260.847656 171.105469 262.046875 169.339844 L 262.050781 169.339844 C 262.261719 169.457031 262.488281 169.546875 262.730469 169.617188 C 264.621094 170.148438 266.242188 170.820312 267.601562 171.632812 L 267.597656 171.632812 C 268.648438 172.414062 269.421875 173.210938 269.921875 174.019531 L 269.941406 174.046875 C 270.488281 174.90625 270.742188 175.570312 270.710938 176.039062 C 270.644531 176.960938 270.53125 177.644531 270.363281 178.097656 L 270.359375 178.097656 C 269.085938 178.570312 268.191406 179.8125 268.234375 181.242188 C 268.285156 183.007812 269.734375 184.402344 271.492188 184.402344 C 271.523438 184.402344 271.554688 184.402344 271.585938 184.402344 C 271.945312 184.390625 272.300781 184.386719 272.644531 184.386719 C 278.359375 184.386719 282.074219 185.820312 283.785156 188.6875 C 286.195312 192.875 285.964844 197.179688 283.09375 201.605469 C 283.058594 201.65625 283.027344 201.710938 282.996094 201.765625 C 279.089844 208.648438 267.121094 212.359375 247.09375 212.902344 C 247.050781 212.902344 247.007812 212.902344 246.96875 212.90625 C 239.972656 213.371094 203.167969 214.410156 136.546875 216.023438 L 136.535156 216.023438 C 133.496094 216.109375 130.597656 216.152344 127.835938 216.152344 C 117.765625 216.152344 109.570312 215.59375 103.257812 214.480469 L 103.253906 214.480469 C 101.636719 214.167969 100.164062 213.796875 98.839844 213.367188 C 91.726562 211.066406 89.171875 206.816406 91.171875 200.617188 C 92.914062 195.441406 95.539062 192.027344 99.042969 190.378906 C 101.011719 189.566406 102.726562 189.164062 104.1875 189.164062 C 106.015625 189.164062 107.449219 189.800781 108.480469 191.074219 C 109.125 191.867188 110.066406 192.28125 111.019531 192.28125 C 111.738281 192.28125 112.460938 192.042969 113.066406 191.558594 C 113.136719 191.5 113.207031 191.4375 113.269531 191.375 L 113.273438 191.375 C 113.84375 191.710938 114.421875 192.003906 115.011719 192.25 C 117.550781 193.550781 120.113281 194.203125 122.699219 194.203125 C 125.105469 194.203125 127.53125 193.640625 129.980469 192.511719 C 130.085938 192.464844 130.1875 192.410156 130.289062 192.347656 C 136.269531 188.769531 138.242188 183.019531 136.210938 175.09375 C 136.179688 174.96875 136.140625 174.847656 136.09375 174.730469 C 134.140625 169.671875 130.03125 167.140625 123.765625 167.140625 C 122.796875 167.140625 121.773438 167.203125 120.695312 167.324219 C 118.90625 167.527344 117.621094 169.136719 117.824219 170.921875 C 118.011719 172.585938 119.425781 173.8125 121.058594 173.8125 C 121.183594 173.8125 121.304688 173.804688 121.429688 173.789062 C 122.191406 173.703125 122.90625 173.660156 123.570312 173.660156 C 126.910156 173.660156 129.039062 174.746094 129.949219 176.921875 C 131.074219 181.53125 130.117188 184.785156 127.074219 186.683594 C 125.609375 187.332031 124.15625 187.65625 122.71875 187.65625 C 121.089844 187.65625 119.480469 187.242188 117.886719 186.410156 C 117.796875 186.363281 117.707031 186.320312 117.613281 186.28125 C 114.917969 185.183594 112.386719 182.339844 110.027344 177.757812 L 110.023438 177.757812 C 108.25 173.496094 107.914062 168.808594 109.023438 163.691406 L 109.027344 163.683594 C 110.097656 158.695312 112.089844 154.636719 114.992188 151.5 C 115.078125 151.410156 115.15625 151.3125 115.230469 151.214844 C 117.546875 148.054688 121.351562 145.726562 126.648438 144.234375 C 128.023438 144.085938 129.34375 144.007812 130.617188 144.007812 C 134.828125 144.007812 138.46875 144.824219 141.539062 146.457031 L 141.535156 146.457031 C 143.652344 149.886719 146.613281 152.828125 150.425781 155.28125 C 150.542969 155.355469 150.660156 155.421875 150.785156 155.480469 C 154.34375 157.179688 157.71875 158.03125 160.910156 158.03125 C 163.785156 158.03125 166.507812 157.34375 169.089844 155.96875 L 169.09375 155.964844 C 175.414062 152.578125 179.550781 148.234375 181.496094 142.9375 L 181.492188 142.9375 C 184.175781 136.40625 183.289062 130.40625 178.828125 124.933594 C 178.777344 124.871094 178.726562 124.8125 178.671875 124.757812 C 176.113281 122.039062 172.9375 120.683594 169.148438 120.683594 C 167.101562 120.683594 164.875 121.078125 162.46875 121.871094 C 160.757812 122.433594 159.832031 124.273438 160.394531 125.980469 C 160.847656 127.347656 162.121094 128.214844 163.488281 128.214844 C 163.828125 128.214844 164.171875 128.160156 164.511719 128.050781 C 166.164062 127.503906 167.652344 127.230469 168.972656 127.230469 C 170.996094 127.230469 172.625 127.871094 173.863281 129.152344 C 176.613281 132.59375 177.148438 136.367188 175.460938 140.46875 C 175.441406 140.515625 175.425781 140.558594 175.410156 140.605469 C 174.046875 144.394531 170.914062 147.605469 166.011719 150.234375 C 164.433594 151.070312 162.726562 151.492188 160.894531 151.492188 C 158.710938 151.492188 156.34375 150.894531 153.796875 149.703125 L 153.792969 149.703125 C 150.78125 147.738281 148.472656 145.382812 146.871094 142.640625 L 146.867188 142.640625 C 146.820312 142.546875 146.769531 142.453125 146.714844 142.363281 L 146.710938 142.363281 C 145.644531 140.46875 144.90625 138.390625 144.5 136.132812 C 144.484375 136.054688 144.46875 135.976562 144.449219 135.902344 C 143.054688 130.484375 144 124.078125 147.289062 116.683594 L 147.285156 116.683594 C 151.078125 110.171875 155.113281 105.640625 159.398438 103.09375 C 159.449219 103.066406 159.5 103.035156 159.550781 103 C 165.953125 98.707031 172.867188 96.363281 180.292969 95.96875 L 180.289062 95.96875 C 180.558594 95.964844 180.828125 95.964844 181.09375 95.964844 Z M 110.683594 222.003906 C 109.59375 222.003906 108.527344 222.550781 107.910156 223.542969 C 107.316406 224.492188 106.871094 225.222656 106.566406 225.726562 C 106.550781 225.753906 106.535156 225.78125 106.519531 225.808594 C 105.738281 227.203125 104.519531 229.273438 102.867188 232.019531 C 101.9375 233.558594 102.4375 235.558594 103.980469 236.484375 C 104.503906 236.796875 105.085938 236.949219 105.65625 236.949219 C 106.761719 236.949219 107.839844 236.386719 108.453125 235.371094 C 110.109375 232.621094 111.347656 230.519531 112.164062 229.070312 L 112.160156 229.070312 C 112.445312 228.59375 112.875 227.894531 113.449219 226.972656 C 114.398438 225.445312 113.925781 223.441406 112.398438 222.492188 C 111.863281 222.160156 111.269531 222.003906 110.683594 222.003906 Z M 234.988281 219.992188 C 233.609375 219.992188 232.328125 220.871094 231.882812 222.257812 C 231.308594 224.0625 230.660156 225.742188 229.9375 227.296875 C 229.324219 228.601562 228.214844 230.703125 226.601562 233.597656 C 225.726562 235.167969 226.292969 237.148438 227.867188 238.019531 C 228.371094 238.296875 228.914062 238.429688 229.449219 238.429688 C 230.59375 238.429688 231.703125 237.828125 232.300781 236.757812 C 233.988281 233.722656 235.171875 231.484375 235.847656 230.039062 L 235.851562 230.03125 C 236.6875 228.230469 237.4375 226.296875 238.097656 224.230469 C 238.644531 222.519531 237.695312 220.691406 235.980469 220.144531 C 235.652344 220.039062 235.316406 219.992188 234.988281 219.992188 Z M 165.730469 240.816406 Z M 159.398438 249.847656 C 158.101562 249.847656 156.878906 250.621094 156.367188 251.890625 C 156.199219 252.316406 155.867188 252.917969 155.371094 253.699219 L 151.671875 259.355469 C 150.6875 260.859375 151.109375 262.875 152.617188 263.859375 C 153.167969 264.214844 153.785156 264.386719 154.398438 264.386719 C 155.460938 264.386719 156.503906 263.867188 157.128906 262.910156 L 160.855469 257.21875 L 160.878906 257.183594 C 161.589844 256.0625 162.101562 255.105469 162.421875 254.308594 C 163.089844 252.636719 162.277344 250.746094 160.605469 250.078125 C 160.207031 249.921875 159.800781 249.847656 159.398438 249.847656 Z M 201.769531 220.882812 C 200.761719 222.230469 200.074219 223.191406 199.710938 223.765625 L 199.707031 223.765625 C 199.230469 224.4375 198.875 225.105469 198.644531 225.765625 C 198.304688 226.75 198.226562 227.710938 198.417969 228.652344 C 198.433594 228.738281 198.457031 228.828125 198.480469 228.914062 C 198.886719 230.316406 199.8125 231.238281 201.257812 231.671875 C 201.449219 231.730469 201.644531 231.769531 201.84375 231.792969 C 204.359375 232.070312 206.386719 232.449219 207.917969 232.929688 L 207.914062 232.929688 C 194.730469 246.324219 182.148438 258.226562 170.175781 268.632812 C 173.15625 263.695312 177.171875 257.09375 182.21875 248.828125 C 182.238281 248.792969 182.261719 248.757812 182.28125 248.722656 C 184.449219 244.851562 185.707031 242.304688 186.054688 241.082031 C 186.132812 240.8125 186.1875 240.550781 186.21875 240.304688 L 186.214844 240.304688 C 186.25 240.046875 186.269531 239.796875 186.269531 239.554688 C 186.277344 236.695312 184.789062 235.265625 181.804688 235.257812 L 181.796875 235.257812 C 181.496094 235.257812 181.195312 235.300781 180.90625 235.382812 C 176.34375 236.679688 172.621094 237.625 169.734375 238.21875 C 168.539062 238.46875 167.523438 238.652344 166.683594 238.777344 C 169.910156 232.652344 172.285156 226.933594 173.8125 221.609375 C 184.214844 221.347656 193.53125 221.101562 201.765625 220.882812 Z M 101.277344 247.496094 C 100.171875 247.496094 99.09375 248.058594 98.484375 249.070312 L 87.726562 266.824219 C 86.796875 268.359375 87.289062 270.359375 88.828125 271.289062 C 89.355469 271.609375 89.9375 271.761719 90.511719 271.761719 C 91.617188 271.761719 92.691406 271.199219 93.304688 270.1875 L 104.0625 252.433594 C 104.992188 250.898438 104.5 248.898438 102.957031 247.96875 C 102.429688 247.648438 101.851562 247.496094 101.277344 247.496094 Z M 204.753906 254.542969 C 203.511719 254.542969 202.320312 255.257812 201.777344 256.464844 C 200.910156 258.390625 198.515625 262.324219 194.597656 268.257812 C 193.605469 269.757812 194.019531 271.773438 195.523438 272.761719 C 196.074219 273.128906 196.699219 273.300781 197.316406 273.300781 C 198.375 273.300781 199.414062 272.785156 200.039062 271.839844 C 204.152344 265.613281 206.714844 261.375 207.726562 259.128906 C 208.464844 257.488281 207.730469 255.5625 206.085938 254.828125 C 205.652344 254.632812 205.199219 254.542969 204.753906 254.542969 Z M 151.671875 229.046875 C 150.480469 229.046875 149.332031 229.703125 148.757812 230.835938 C 144.796875 238.675781 139.972656 247.429688 134.285156 257.097656 C 131.445312 261.871094 128.59375 266.410156 125.730469 270.707031 C 124.730469 272.199219 125.136719 274.21875 126.636719 275.214844 C 127.191406 275.582031 127.820312 275.761719 128.441406 275.761719 C 129.496094 275.761719 130.527344 275.25 131.15625 274.308594 C 134.085938 269.914062 137 265.28125 139.902344 260.402344 L 139.910156 260.390625 C 145.664062 250.601562 150.554688 241.730469 154.578125 233.765625 C 155.390625 232.164062 154.742188 230.207031 153.136719 229.398438 C 152.664062 229.160156 152.164062 229.046875 151.671875 229.046875 Z M 226.929688 246.828125 C 225.703125 246.828125 224.53125 247.519531 223.976562 248.699219 C 218.671875 259.992188 213.988281 268.824219 209.925781 275.191406 C 208.960938 276.707031 209.410156 278.71875 210.929688 279.683594 C 211.46875 280.027344 212.074219 280.191406 212.675781 280.191406 C 213.753906 280.191406 214.808594 279.660156 215.429688 278.683594 C 219.636719 272.082031 224.453125 263.007812 229.878906 251.460938 C 230.640625 249.835938 229.941406 247.898438 228.308594 247.136719 C 227.863281 246.925781 227.390625 246.828125 226.929688 246.828125 Z M 243.726562 257.898438 C 242.492188 257.898438 241.308594 258.601562 240.761719 259.796875 C 237.3125 267.328125 234.691406 272.519531 232.894531 275.375 C 231.9375 276.898438 232.394531 278.90625 233.921875 279.859375 C 234.457031 280.199219 235.058594 280.359375 235.652344 280.359375 C 236.734375 280.359375 237.796875 279.820312 238.414062 278.835938 C 240.367188 275.738281 243.125 270.292969 246.691406 262.503906 C 247.4375 260.867188 246.71875 258.9375 245.078125 258.191406 C 244.640625 257.992188 244.179688 257.898438 243.726562 257.898438 Z M 181.101562 89.457031 C 180.78125 89.457031 180.457031 89.460938 180.132812 89.464844 C 180.09375 89.464844 180.054688 89.46875 180.015625 89.46875 C 171.382812 89.917969 163.367188 92.617188 155.960938 97.570312 L 155.957031 97.570312 C 150.714844 100.71875 145.917969 106.046875 141.570312 113.550781 C 141.515625 113.648438 141.464844 113.75 141.417969 113.851562 C 137.460938 122.667969 136.359375 130.53125 138.113281 137.441406 C 138.167969 137.75 138.230469 138.050781 138.296875 138.351562 C 135.910156 137.785156 133.355469 137.503906 130.628906 137.503906 C 129.03125 137.503906 127.375 137.601562 125.660156 137.796875 C 125.492188 137.816406 125.324219 137.847656 125.164062 137.890625 C 118.351562 139.765625 113.320312 142.878906 110.070312 147.234375 L 110.066406 147.234375 C 106.429688 151.21875 103.960938 156.246094 102.652344 162.320312 C 101.246094 168.804688 101.710938 174.820312 104.050781 180.367188 C 104.082031 180.441406 104.113281 180.511719 104.152344 180.582031 C 104.511719 181.285156 104.875 181.957031 105.25 182.601562 C 104.980469 182.585938 104.707031 182.578125 104.429688 182.578125 C 102.058594 182.578125 99.414062 183.179688 96.5 184.386719 C 96.460938 184.402344 96.421875 184.421875 96.378906 184.4375 C 91.136719 186.859375 87.339844 191.5625 84.992188 198.546875 L 84.980469 198.578125 C 81.621094 208.921875 85.570312 215.914062 96.828125 219.558594 C 98.40625 220.066406 100.136719 220.503906 102.015625 220.867188 L 102.066406 220.878906 C 108.761719 222.0625 117.367188 222.65625 127.878906 222.65625 C 129.613281 222.65625 131.398438 222.640625 133.234375 222.609375 L 133.238281 222.609375 C 132.523438 222.917969 131.917969 223.480469 131.566406 224.242188 C 130.878906 225.75 130.449219 226.648438 130.277344 226.9375 C 130.269531 226.953125 130.257812 226.972656 130.242188 226.996094 C 126.554688 232.921875 123.855469 237.507812 122.140625 240.757812 L 122.136719 240.757812 L 112.269531 256.824219 C 111.328125 258.355469 111.8125 260.359375 113.347656 261.300781 C 113.878906 261.625 114.464844 261.777344 115.046875 261.777344 C 116.144531 261.777344 117.214844 261.226562 117.828125 260.226562 L 127.769531 244.035156 C 127.808594 243.976562 127.84375 243.914062 127.878906 243.851562 C 129.519531 240.730469 132.160156 236.25 135.792969 230.40625 L 135.808594 230.378906 L 135.8125 230.378906 C 135.839844 230.335938 135.867188 230.289062 135.894531 230.242188 C 136.179688 229.757812 136.714844 228.65625 137.5 226.941406 C 138.246094 225.308594 137.523438 223.378906 135.886719 222.632812 C 135.824219 222.605469 135.765625 222.578125 135.703125 222.554688 L 135.699219 222.554688 C 136.03125 222.546875 136.367188 222.539062 136.707031 222.527344 C 147.578125 222.265625 157.65625 222.015625 166.945312 221.785156 C 165.328125 226.789062 162.902344 232.210938 159.667969 238.050781 C 159.566406 238.230469 159.484375 238.421875 159.421875 238.621094 C 159.300781 238.992188 159.210938 239.355469 159.152344 239.707031 C 158.96875 240.820312 159.085938 241.824219 159.507812 242.714844 C 159.988281 244.105469 161.105469 244.96875 162.851562 245.308594 C 163.3125 245.398438 163.863281 245.445312 164.503906 245.445312 C 166.117188 245.445312 168.300781 245.160156 171.054688 244.589844 C 173.03125 244.183594 175.355469 243.625 178.035156 242.917969 C 177.625 243.683594 177.144531 244.5625 176.589844 245.550781 L 176.585938 245.550781 C 164.894531 264.699219 158.664062 275.066406 157.898438 276.660156 L 157.894531 276.660156 C 156.949219 278.210938 156.339844 279.390625 156.066406 280.199219 C 155.394531 282.191406 155.851562 283.675781 157.4375 284.648438 C 158.007812 285 158.605469 285.171875 159.226562 285.171875 C 159.726562 285.171875 160.242188 285.058594 160.777344 284.835938 C 161.058594 284.714844 161.320312 284.558594 161.558594 284.367188 C 177.933594 271.125 195.484375 254.9375 214.21875 235.804688 C 214.246094 235.777344 214.273438 235.75 214.300781 235.71875 C 214.339844 235.671875 214.382812 235.625 214.421875 235.578125 C 216.484375 233.1875 216.359375 230.941406 214.046875 228.839844 C 213.988281 228.789062 213.933594 228.742188 213.875 228.691406 C 213.496094 228.371094 213.054688 228.074219 212.554688 227.800781 C 212.515625 227.777344 212.476562 227.757812 212.4375 227.738281 C 210.847656 226.949219 208.769531 226.320312 206.199219 225.847656 L 206.195312 225.847656 C 207.046875 224.679688 208.367188 222.945312 210.144531 220.652344 L 210.140625 220.652344 C 231.046875 220.070312 243.445312 219.65625 247.332031 219.402344 L 247.328125 219.402344 C 251.253906 219.296875 254.917969 219.058594 258.316406 218.695312 L 258.320312 218.695312 C 258.191406 218.929688 258.09375 219.1875 258.027344 219.457031 L 258.023438 219.457031 C 257.476562 221.042969 253.664062 228.890625 246.589844 242.996094 C 245.78125 244.605469 246.433594 246.558594 248.042969 247.363281 C 248.511719 247.597656 249.011719 247.707031 249.5 247.707031 C 250.695312 247.707031 251.847656 247.046875 252.417969 245.910156 C 259.757812 231.273438 263.707031 223.09375 264.257812 221.367188 L 264.257812 221.363281 C 264.304688 221.21875 264.34375 221.078125 264.375 220.949219 C 264.625 219.851562 264.289062 218.757812 263.570312 217.996094 L 263.566406 217.996094 C 276.464844 215.914062 284.804688 211.621094 288.582031 205.125 L 288.578125 205.125 C 292.890625 198.460938 293.167969 191.886719 289.410156 185.394531 L 289.386719 185.359375 C 286.980469 181.320312 282.859375 178.917969 277.027344 178.148438 L 277.019531 178.148438 C 277.109375 177.628906 277.171875 177.074219 277.214844 176.492188 L 277.214844 176.488281 C 277.34375 174.609375 276.761719 172.648438 275.46875 170.597656 C 274.5 169.035156 273.117188 167.597656 271.316406 166.285156 C 271.242188 166.234375 271.167969 166.183594 271.089844 166.136719 C 269.378906 165.09375 267.410156 164.234375 265.1875 163.554688 L 265.183594 163.554688 C 266.191406 161.109375 266.847656 158.582031 267.15625 155.980469 C 267.160156 155.917969 267.167969 155.855469 267.171875 155.796875 C 267.53125 149.789062 265.992188 143.386719 262.550781 136.582031 L 262.53125 136.535156 C 256.714844 125.464844 249.058594 119.929688 239.566406 119.929688 C 236.492188 119.929688 233.222656 120.511719 229.761719 121.671875 L 229.757812 121.671875 C 228.859375 121.949219 227.992188 122.296875 227.160156 122.703125 C 227.167969 122.460938 227.148438 122.210938 227.097656 121.960938 C 225.179688 112.519531 219.65625 104.566406 210.527344 98.113281 C 210.5 98.09375 210.472656 98.074219 210.445312 98.054688 C 201.78125 92.324219 192 89.457031 181.101562 89.457031 Z M 181.101562 89.457031 " fill-opacity="1" fill-rule="nonzero"/></g></svg>